<svg width="235" height="208" viewBox="0 0 235 208" fill="none" xmlns="http://www.w3.org/2000/svg">
<path d="M34.4265 89.7251C-11.4755 116.236 -11.4755 159.165 34.4265 185.652C80.3285 212.138 154.698 212.143 200.581 185.652C246.463 159.16 246.483 116.236 200.581 89.7251C154.679 63.2138 80.309 63.2333 34.4265 89.7251Z" fill="#FAFAFA"/>
<path d="M47.9999 184.785L170.501 196.89L182.888 106.911L47.9999 184.785Z" fill="#E0E0E0"/>
<path opacity="0.1" d="M47.9999 184.785L171.367 190.592L182.888 106.911L47.9999 184.785Z" fill="black"/>
<path d="M47.9999 184.785L186.927 187.117L182.888 106.911L47.9999 184.785Z" fill="#F0F0F0"/>
<path d="M186.494 178.56L186.134 171.342L74.2531 169.629L62.0853 176.657L186.494 178.56Z" fill="#9CBB30"/>
<path opacity="0.15" d="M192.621 89.4672C227.275 109.476 227.275 141.915 192.621 161.924C157.967 181.933 101.776 181.933 67.1217 161.924C32.4677 141.915 32.4677 109.476 67.1217 89.4672C101.776 69.4584 157.967 69.4681 192.621 89.4672Z" fill="black"/>
<path d="M23.4098 148.812L104.331 188.353C109.923 184.795 117.706 183.826 126.384 187.146C135.519 190.64 144.061 199.752 137.208 204.531C130.355 209.311 113.744 208.639 105.256 203.329C99.415 199.664 98.2079 194.831 100.695 191.531L16.5179 153.621C14.0697 152.477 20.9616 147.668 23.4098 148.812Z" fill="#E0E0E0"/>
<path d="M178.025 199.849H178.054C175.952 201.878 173.513 203.869 167.42 204.677C161.326 205.485 152.872 204.925 146.097 200.861C139.609 196.968 139.623 191.701 140.339 189.239C140.417 189.102 141.312 187.243 141.419 187.112L145.002 183.982C148.465 182.088 152.35 181.097 156.298 181.101C165.132 181.198 175.811 186.041 179.266 193.517C180.473 196.135 179.797 198.252 178.025 199.849Z" fill="#EBEBEB"/>
<path d="M55.5923 149.421L142.714 188.645C143.95 187.54 145.315 186.587 146.778 185.807L146.695 184.834L62.3235 143.692C60.2404 142.719 54.8914 146.126 55.0228 147.79C55.0228 147.951 55.091 148.618 55.1056 148.788C55.1194 148.928 55.1723 149.062 55.2584 149.174C55.3444 149.286 55.4601 149.371 55.5923 149.421Z" fill="#EBEBEB"/>
<path d="M166.729 182.799C158.177 179.529 150.506 180.488 144.997 183.997L62.3236 143.692C59.9143 142.563 53.1247 147.299 55.5339 148.428L141.449 187.121C139.015 190.373 140.027 193.96 145.941 197.342C153.616 201.723 170.666 204.643 177.422 199.946C184.177 195.25 175.728 186.245 166.729 182.799Z" fill="#F5F5F5"/>
<path d="M179.32 197.795C177.753 193.848 171.566 189.151 165.692 186.82C157.374 183.52 150.837 184.279 146.914 187.481C142.991 190.684 143.595 194.782 150.988 198.841C152.443 199.621 153.95 200.298 155.5 200.866C163.438 202.789 172.803 203.134 177.402 199.927C178.209 199.387 178.868 198.654 179.32 197.795Z" fill="#FAFAFA"/>
<path d="M154.21 197.775C159.506 200.696 170.272 202.94 173.65 200.175C177.027 197.41 170.603 191.614 164.64 189.248C158.678 186.883 154.103 187.443 151.324 189.735C148.545 192.027 148.959 194.899 154.21 197.775Z" fill="white"/>
<path d="M61.4084 143.911C61.6536 143.902 61.8978 143.947 62.1239 144.042L144.826 184.376L145.021 184.469L145.206 184.352C148.584 182.254 152.492 181.163 156.468 181.208C159.936 181.245 163.367 181.916 166.592 183.189C173.275 185.749 178.906 190.976 179.412 195.099C179.636 196.914 178.882 198.437 177.168 199.63C174.988 201.153 171.469 201.961 167.001 201.961C159.944 201.961 151.158 199.878 146.111 197.007C142.904 195.181 141.069 193.254 140.66 191.283C140.397 189.993 140.757 188.679 141.736 187.389L142.033 186.995L141.585 186.795L55.675 148.072C55.3927 147.941 55.3635 147.795 55.4073 147.586C55.6993 146.281 59.2718 143.891 61.4084 143.891M61.4084 143.497C58.5612 143.497 53.3533 147.391 55.5095 148.408L141.424 187.102C138.991 190.353 140.003 193.94 145.917 197.323C150.827 200.117 159.574 202.331 167.001 202.331C171.192 202.331 174.964 201.625 177.397 199.927C184.148 195.215 175.733 186.245 166.728 182.799C163.46 181.506 159.983 180.825 156.468 180.789C152.416 180.738 148.435 181.851 144.997 183.997L62.3235 143.692C62.0427 143.57 61.7388 143.51 61.4328 143.517L61.4084 143.497Z" fill="#EBEBEB"/>
<path opacity="0.1" d="M142.145 186.644C142.145 186.644 66.6261 152.74 62.2602 150.793C57.4564 148.7 54.5848 147.8 57.3493 145.867C60.5908 143.609 61.4961 144.407 61.4961 144.407C60.3715 144.622 59.311 145.092 58.3957 145.78C56.775 147.026 58.3957 148.359 61.8855 149.674C65.3752 150.988 142.145 186.644 142.145 186.644Z" fill="white"/>
<path d="M178.49 84.7898C144.98 65.4429 90.6478 65.4429 57.1327 84.7898V81.3049C39.611 91.4237 31.2687 104.828 32.0718 118.081C31.2687 131.334 39.611 144.738 57.1327 154.852C90.643 174.199 144.975 174.199 178.49 154.852C212.005 135.505 212 104.137 178.49 84.7898Z" fill="#9CBB30"/>
<path opacity="0.3" d="M178.49 84.7898C144.98 65.4429 90.6478 65.4429 57.1327 84.7898V81.3049C39.611 91.4237 31.2687 104.828 32.0718 118.081C31.2687 131.334 39.611 144.738 57.1327 154.852C90.643 174.199 144.975 174.199 178.49 154.852C212.005 135.505 212 104.137 178.49 84.7898Z" fill="white"/>
<path d="M178.49 81.3049C212 100.652 212 132.021 178.49 151.392C144.98 170.763 90.6431 170.739 57.1328 151.392C23.6226 132.045 23.6226 100.676 57.1328 81.3049C90.6431 61.9337 144.98 61.9581 178.49 81.3049Z" fill="#FAFAFA"/>
<path d="M117.811 67.2827C140.648 67.2827 162.102 72.4126 178.242 81.7283C194.303 90.9759 203.132 103.285 203.132 116.339C203.132 129.392 194.289 141.682 178.242 150.949C162.102 160.264 140.648 165.394 117.811 165.394C94.9748 165.394 73.5205 160.26 57.3762 150.949C41.3146 141.701 32.4856 129.387 32.4856 116.339C32.4856 103.29 41.3243 90.9954 57.3762 81.7235C73.5205 72.4321 94.9748 67.2827 117.811 67.2827ZM117.811 66.7959C95.8557 66.7959 73.8904 71.6339 57.1328 81.3049C23.6226 100.652 23.6226 132.02 57.1328 151.392C73.8904 161.043 95.846 165.881 117.811 165.881C139.777 165.881 161.732 161.043 178.49 151.367C212 132.02 212 100.652 178.49 81.2805C161.732 71.6047 139.777 66.7667 117.811 66.7716V66.7959Z" fill="#EBEBEB"/>
<path d="M76.6695 94.4072C53.6382 107.704 53.6333 129.261 76.6695 142.558C99.7057 155.855 137.022 155.855 160.068 142.558C183.114 129.261 183.099 107.704 160.068 94.4072C137.037 81.1102 99.6959 81.1102 76.6695 94.4072Z" fill="#9CBB30"/>
<path opacity="0.5" d="M76.6695 94.4072C53.6382 107.704 53.6333 129.261 76.6695 142.558C99.7057 155.855 137.022 155.855 160.068 142.558C183.114 129.261 183.099 107.704 160.068 94.4072C137.037 81.1102 99.6959 81.1102 76.6695 94.4072Z" fill="white"/>
<path d="M79.507 96.8651C58.0429 108.804 58.0429 128.161 79.507 140.095C100.971 152.029 135.761 152.034 157.235 140.085C178.709 128.136 178.699 108.79 157.235 96.8553C135.771 84.9211 100.966 84.9309 79.507 96.8651Z" fill="#FAFAFA"/>
<path opacity="0.15" d="M170.152 140.961C175.764 144.013 175.141 147.478 168.206 146.826C151.794 145.269 73.2965 139.039 56.354 137.618C51.3408 137.199 50.8249 134.04 53.7549 126.574C56.6849 119.108 71.4372 96.7094 91.8159 93.8134C91.8208 93.8134 164.536 137.905 170.152 140.961Z" fill="black"/>
<path d="M170.153 63.9438V142.441C170.153 142.732 170.09 143.019 169.97 143.284C169.85 143.548 169.674 143.784 169.455 143.976C169.236 144.167 168.979 144.309 168.701 144.393C168.422 144.477 168.129 144.5 167.841 144.461L65.631 130.604C64.6027 130.465 63.6596 129.958 62.9767 129.177C62.2939 128.395 61.9175 127.393 61.9174 126.355V48.9287C61.918 48.6133 61.9917 48.3024 62.1327 48.0203C62.2737 47.7383 62.4783 47.4927 62.7302 47.3031L105.196 15.5645C106.002 14.9557 107.006 14.6684 108.013 14.7583C109.019 14.8482 109.957 15.309 110.642 16.0512L169.233 61.5784C169.823 62.225 170.151 63.0684 170.153 63.9438Z" fill="#EBEBEB"/>
<path d="M86.2675 22.6851C92.2317 19.2864 98.5204 16.4917 105.04 14.3429C106.914 13.715 108.754 13.3159 111.367 15.365C113.981 17.414 169.403 61.7828 169.403 61.7828C169.458 61.8424 169.492 61.9173 169.503 61.9973C169.514 62.0773 169.499 62.1586 169.462 62.2303C169.425 62.3019 169.367 62.3605 169.295 62.398C169.224 62.4354 169.142 62.4501 169.062 62.4399L63.4017 48.0965C61.9416 47.8969 61.9416 48.9141 61.9416 48.9141C61.9377 48.245 62.072 47.5822 62.3358 46.9673C66.2198 38.0799 74.2067 29.65 86.2675 22.6851Z" fill="#FAFAFA"/>
<path d="M107.556 14.265C108.729 14.265 109.859 14.7225 111.114 15.7251C113.64 17.672 165.738 59.4077 168.994 62.0165L63.4601 47.6876C63.3214 47.6687 63.1816 47.6589 63.0415 47.6584C62.8678 47.6558 62.6944 47.6754 62.5256 47.7168C62.5768 47.5235 62.6435 47.3347 62.7252 47.1522C66.7065 38.0653 74.9222 29.7327 86.4817 23.0599C92.4147 19.6759 98.6708 16.8927 105.157 14.7517C105.918 14.4592 106.722 14.2948 107.537 14.265M107.537 13.8367C106.677 13.8619 105.828 14.0263 105.021 14.3234C98.501 16.4723 92.2122 19.2669 86.2481 22.6657C74.2068 29.65 66.2198 38.0799 62.3261 46.977C62.0622 47.592 61.928 48.2547 61.9318 48.9239C61.9318 48.9239 61.9318 48.0818 63.0367 48.0818C63.1571 48.0833 63.2773 48.0915 63.3968 48.1062L169.072 62.435H169.126C169.201 62.4338 169.275 62.4108 169.338 62.3689C169.401 62.327 169.45 62.268 169.48 62.1987C169.511 62.1295 169.52 62.0531 169.508 61.9785C169.496 61.9039 169.463 61.8343 169.413 61.778C169.413 61.778 114.005 17.4335 111.382 15.365C109.922 14.2163 108.681 13.8367 107.556 13.8367H107.537Z" fill="#EBEBEB"/>
<path d="M167.84 144.466L69.7092 131.154C69.1683 131.077 68.6735 130.807 68.3158 130.394C67.9581 129.98 67.7616 129.452 67.7624 128.906V123.425C67.7629 123.167 67.8185 122.912 67.9255 122.677C68.0325 122.442 68.1884 122.232 68.3828 122.062C68.5772 121.892 68.8056 121.766 69.0528 121.691C69.3 121.616 69.5603 121.595 69.8163 121.629L170.152 135.218V142.436C170.154 142.728 170.092 143.016 169.973 143.282C169.853 143.548 169.678 143.785 169.458 143.977C169.239 144.17 168.982 144.313 168.702 144.397C168.423 144.481 168.129 144.505 167.84 144.466Z" fill="#9CBB30"/>
<path opacity="0.4" d="M167.84 144.466L69.7092 131.154C69.1683 131.077 68.6735 130.807 68.3158 130.394C67.9581 129.98 67.7616 129.452 67.7624 128.906V123.425C67.7629 123.167 67.8185 122.912 67.9255 122.677C68.0325 122.442 68.1884 122.232 68.3828 122.062C68.5772 121.892 68.8056 121.766 69.0528 121.691C69.3 121.616 69.5603 121.595 69.8163 121.629L170.152 135.218V142.436C170.154 142.728 170.092 143.016 169.973 143.282C169.853 143.548 169.678 143.785 169.458 143.977C169.239 144.17 168.982 144.313 168.702 144.397C168.423 144.481 168.129 144.505 167.84 144.466Z" fill="black"/>
<path opacity="0.2" d="M69.7969 121.629C69.5409 121.595 69.2806 121.616 69.0334 121.691C68.7862 121.766 68.5578 121.892 68.3634 122.062C68.169 122.232 68.0131 122.442 67.9061 122.677C67.7991 122.912 67.7435 123.167 67.7429 123.425V128.891C67.7421 129.437 67.9386 129.966 68.2963 130.379C68.654 130.792 69.1488 131.062 69.6898 131.14L90.8424 134.006L81.0059 130.716C79.3511 130.161 77.5989 129.553 76.4697 128.229C75.8662 127.533 75.4963 126.379 76.1874 125.756C76.5734 125.468 77.0497 125.326 77.5308 125.357C83.7315 125.138 89.2654 129.441 95.4418 130.001C98.7661 130.302 102.154 129.514 105.439 130.088C107.347 130.429 109.153 131.222 111.065 131.519C115.446 132.205 119.339 130.005 123.433 128.881L69.7969 121.629ZM82.5536 127.037C81.6775 126.759 80.4656 126.394 79.6334 126.876C79.4865 126.952 79.3597 127.062 79.2633 127.196C79.1669 127.331 79.1036 127.486 79.0785 127.65C78.9666 129.042 81.8187 129.563 82.7873 129.709C83.5563 129.825 85.3668 129.738 84.7779 128.458C84.3983 127.674 83.3129 127.285 82.5536 127.037ZM86.5398 131.295C86.7552 131.482 87.0149 131.611 87.2942 131.67C87.6 131.753 87.9129 131.806 88.2287 131.831C88.8663 131.889 89.2752 131.344 88.8371 130.828C88.6449 130.615 88.4117 130.444 88.1517 130.323C87.8916 130.203 87.6099 130.136 87.3234 130.127C86.6615 130.088 85.912 130.667 86.5398 131.295Z" fill="black"/>
<path d="M170.152 131.256L69.7092 117.628C69.1679 117.55 68.673 117.279 68.3154 116.865C67.9578 116.451 67.7614 115.922 67.7624 115.375V109.909C67.7621 109.651 67.8172 109.395 67.9239 109.16C68.0307 108.924 68.1866 108.714 68.3812 108.544C68.5757 108.374 68.8045 108.248 69.052 108.173C69.2996 108.099 69.5602 108.078 69.8163 108.113L170.172 121.702L170.152 131.256Z" fill="#9CBB30"/>
<path opacity="0.2" d="M170.152 131.256L69.7092 117.628C69.1679 117.55 68.673 117.279 68.3154 116.865C67.9578 116.451 67.7614 115.922 67.7624 115.375V109.909C67.7621 109.651 67.8172 109.395 67.9239 109.16C68.0307 108.924 68.1866 108.714 68.3812 108.544C68.5757 108.374 68.8045 108.248 69.052 108.173C69.2996 108.099 69.5602 108.078 69.8163 108.113L170.172 121.702L170.152 131.256Z" fill="black"/>
<path opacity="0.2" d="M69.7969 108.094C69.5407 108.059 69.2801 108.079 69.0326 108.154C68.785 108.228 68.5563 108.355 68.3617 108.525C68.1671 108.695 68.0112 108.905 67.9045 109.14C67.7978 109.376 67.7427 109.631 67.7429 109.89V115.365C67.742 115.912 67.9383 116.441 68.2959 116.855C68.6535 117.269 69.1484 117.54 69.6898 117.619L88.1216 120.13C84.8187 118.987 81.6404 117.511 78.6356 115.725C78.0077 115.351 77.3458 114.903 77.1219 114.207C76.4064 111.919 80.5289 113.092 81.5023 113.287C83.6098 113.72 85.6443 114.489 87.8053 114.63C91.1247 114.844 94.4246 113.657 97.7488 114.212C99.209 114.47 100.635 115.526 102.022 116.1C103.597 116.773 105.25 117.244 106.943 117.502C110.019 117.93 113.144 117.448 116.19 116.966C117.543 116.757 118.882 116.421 120.25 116.305C121.597 116.252 122.946 116.353 124.27 116.606C127.157 116.977 130.015 117.551 132.821 118.324C135.479 119.098 138.049 120.164 140.716 120.909C143.052 121.61 145.497 121.877 147.929 121.697C150.207 121.498 152.407 121.006 154.694 120.69C155.872 120.529 157.649 120.617 158.9 120.174L69.7969 108.094ZM89.3141 117.541C89.3581 117.754 89.4752 117.945 89.6451 118.081C90.7256 119.093 92.3463 119.21 93.8308 119.264C94.0185 119.3 94.2121 119.29 94.3957 119.237C94.5792 119.184 94.7476 119.088 94.887 118.957C96.0843 117.312 89.0951 115.263 89.3141 117.541ZM98.1139 116.183C97.6904 115.866 95.7046 115.175 95.9188 116.348C96.0502 117.059 97.1258 117.249 97.705 117.2C97.8318 117.195 97.9576 117.176 98.0798 117.142H98.1285C98.1974 117.119 98.2603 117.08 98.3125 117.03C98.3647 116.979 98.4049 116.918 98.4302 116.85C98.5081 116.587 98.3426 116.339 98.1139 116.183ZM140.521 122.325C139.605 121.994 138.612 121.938 137.664 122.165C137.454 122.227 137.27 122.356 137.139 122.531C137.007 122.706 136.935 122.919 136.934 123.138C136.973 123.649 137.499 123.97 137.981 124.155C139.019 124.552 140.127 124.732 141.237 124.686C141.44 124.694 141.641 124.643 141.816 124.54C142.794 123.829 141.135 122.564 140.521 122.325Z" fill="black"/>
<path d="M170.152 117.696L69.7092 104.068C69.1683 103.991 68.6735 103.721 68.3158 103.308C67.9581 102.895 67.7616 102.366 67.7624 101.82V96.3492C67.7629 96.0909 67.8185 95.8358 67.9255 95.6008C68.0325 95.3657 68.1884 95.1562 68.3828 94.9863C68.5772 94.8163 68.8056 94.6897 69.0528 94.615C69.3 94.5404 69.5603 94.5193 69.8163 94.5532L170.172 108.142L170.152 117.696Z" fill="#9CBB30"/>
<path opacity="0.2" d="M170.152 117.696L69.7092 104.068C69.1683 103.991 68.6735 103.721 68.3158 103.308C67.9581 102.895 67.7616 102.366 67.7624 101.82V96.3492C67.7629 96.0909 67.8185 95.8358 67.9255 95.6008C68.0325 95.3657 68.1884 95.1562 68.3828 94.9863C68.5772 94.8163 68.8056 94.6897 69.0528 94.615C69.3 94.5404 69.5603 94.5193 69.8163 94.5532L170.172 108.142L170.152 117.696Z" fill="white"/>
<path d="M69.7969 94.5532C69.5409 94.5193 69.2806 94.5404 69.0334 94.615C68.7862 94.6897 68.5578 94.8163 68.3634 94.9863C68.169 95.1562 68.0131 95.3657 67.9061 95.6008C67.7991 95.8358 67.7435 96.0909 67.7429 96.3492V101.83C67.7421 102.376 67.9386 102.904 68.2963 103.318C68.654 103.731 69.1488 104.001 69.6898 104.078L89.9419 106.828C85.9022 105.193 81.22 104.881 77.5746 102.448C76.6693 101.839 75.7542 100.807 76.1144 99.7854C76.4746 98.7633 77.9834 98.5929 79.132 98.6611C87.7517 99.2013 96.4542 99.7562 104.723 102.229C109.002 103.509 113.197 105.305 117.655 105.543C121.807 105.767 126.134 104.638 130.042 106.054C132.062 106.789 133.819 108.167 135.883 108.765C137.11 109.11 138.4 109.171 139.655 108.944C140.909 108.718 142.096 108.209 143.125 107.456C144.216 106.562 145.352 105.724 146.527 104.945L69.7969 94.5532ZM129.697 108.23C129.284 107.957 128.818 107.775 128.33 107.697C127.841 107.618 127.342 107.643 126.864 107.772C126.173 107.913 125.107 108.225 125.866 109.077C126.084 109.303 126.355 109.47 126.655 109.563C127.683 109.948 128.781 110.114 129.877 110.05C131.113 109.938 130.334 108.619 129.697 108.23ZM122.362 107.227C122.355 107.34 122.378 107.453 122.431 107.554C122.483 107.654 122.562 107.738 122.659 107.797C122.851 107.915 123.071 107.982 123.296 107.991C123.595 108.03 123.898 108.03 124.197 107.991C124.518 107.943 124.893 107.787 124.927 107.461C125.044 106.385 122.503 106.054 122.362 107.227ZM80.9377 100.219C79.8134 100.253 78.6356 101.192 79.9643 102.063C80.8418 102.617 81.848 102.934 82.8846 102.983C83.0599 103.023 83.242 103.02 83.4161 102.976C83.5903 102.932 83.7517 102.848 83.8872 102.73C83.962 102.631 84.0117 102.516 84.032 102.394C84.0524 102.272 84.0428 102.147 84.004 102.029C83.926 101.793 83.7924 101.58 83.6147 101.406C83.2697 101.04 82.8553 100.747 82.3957 100.543C81.9361 100.339 81.4404 100.229 80.9377 100.219Z" fill="#9CBB30"/>
<path d="M170.152 104.18L69.7093 90.5525C69.1679 90.476 68.6725 90.2062 68.3146 89.7929C67.9567 89.3795 67.7606 88.8506 67.7624 88.3038V82.8088C67.7629 82.5506 67.8185 82.2955 67.9255 82.0604C68.0325 81.8254 68.1884 81.6159 68.3828 81.4459C68.5772 81.2759 68.8057 81.1494 69.0529 81.0747C69.3001 81 69.5603 80.9789 69.8163 81.0129L170.172 94.6068L170.152 104.18Z" fill="#9CBB30"/>
<path opacity="0.7" d="M170.152 104.18L69.7093 90.5525C69.1679 90.476 68.6725 90.2062 68.3146 89.7929C67.9567 89.3795 67.7606 88.8506 67.7624 88.3038V82.8088C67.7629 82.5506 67.8185 82.2955 67.9255 82.0604C68.0325 81.8254 68.1884 81.6159 68.3828 81.4459C68.5772 81.2759 68.8057 81.1494 69.0529 81.0747C69.3001 81 69.5603 80.9789 69.8163 81.0129L170.172 94.6068L170.152 104.18Z" fill="white"/>
<path opacity="0.3" d="M69.7969 81.0129C69.5409 80.9789 69.2806 81 69.0334 81.0747C68.7862 81.1494 68.5578 81.2759 68.3634 81.4459C68.169 81.6159 68.0131 81.8254 67.9061 82.0604C67.7991 82.2955 67.7435 82.5506 67.7429 82.8088V88.2892C67.7411 88.836 67.9373 89.3649 68.2951 89.7783C68.653 90.1916 69.1484 90.4614 69.6898 90.5379L85.3133 92.6599C84.2912 92.3354 83.2707 91.998 82.2519 91.6476C79.8475 90.8201 77.3361 89.8565 75.7299 87.8804C75.2432 87.2817 74.8441 86.4787 75.1361 85.7681C75.5693 84.6973 77.083 84.7168 78.2122 84.9942C81.5315 85.8167 84.7293 87.2428 88.1411 87.4813C91.553 87.7198 95.1644 86.7366 98.4546 87.7928C101.375 88.737 103.765 91.2241 106.826 91.5843C109.289 91.8763 111.596 90.7131 113.577 89.3697C114.515 88.6445 115.521 88.0105 116.58 87.4764L116.774 87.3791L69.7969 81.0129ZM98.2696 89.6423C97.632 89.5401 96.4688 89.7932 96.2352 90.4794C96.1944 90.6374 96.1939 90.8031 96.2339 90.9613C96.2739 91.1195 96.353 91.2651 96.4639 91.3847C96.6945 91.6169 96.9762 91.7919 97.2865 91.8958C98.0683 92.2088 98.9079 92.3515 99.7492 92.3144C99.8822 92.3162 100.014 92.2931 100.139 92.2462C100.27 92.1765 100.377 92.0695 100.447 91.9386C100.518 91.8078 100.547 91.6591 100.533 91.5113C100.492 91.2147 100.361 90.9377 100.158 90.7179C99.6611 90.1651 98.9987 89.7878 98.2696 89.6423ZM103.487 92.0515C103.081 91.8687 102.622 91.841 102.197 91.9737C102.123 91.9894 102.054 92.0223 101.995 92.0696C101.936 92.1169 101.888 92.1774 101.857 92.2462C101.789 92.4604 101.983 92.6648 102.173 92.7865C102.592 93.0449 103.078 93.1751 103.57 93.1612C103.696 93.1655 103.821 93.1297 103.925 93.059C104.329 92.7232 103.784 92.1927 103.487 92.0515Z" fill="#9CBB30"/>
<path d="M170.152 90.6401L69.7092 77.0121C69.1679 76.9336 68.673 76.6625 68.3154 76.2486C67.9578 75.8346 67.7614 75.3056 67.7624 74.7586V69.2733C67.7621 69.0149 67.8172 68.7593 67.9239 68.5239C68.0307 68.2885 68.1866 68.0787 68.3812 67.9085C68.5757 67.7384 68.8045 67.6119 69.052 67.5375C69.2996 67.4631 69.5602 67.4426 69.8163 67.4774L170.172 81.0664L170.152 90.6401Z" fill="#9CBB30"/>
<path opacity="0.4" d="M170.152 90.6401L69.7092 77.0121C69.1679 76.9336 68.673 76.6625 68.3154 76.2486C67.9578 75.8346 67.7614 75.3056 67.7624 74.7586V69.2733C67.7621 69.0149 67.8172 68.7593 67.9239 68.5239C68.0307 68.2885 68.1866 68.0787 68.3812 67.9085C68.5757 67.7384 68.8045 67.6119 69.052 67.5375C69.2996 67.4631 69.5602 67.4426 69.8163 67.4774L170.172 81.0664L170.152 90.6401Z" fill="white"/>
<path opacity="0.6" d="M69.7969 67.4774C69.5407 67.4426 69.2801 67.4631 69.0326 67.5375C68.785 67.6119 68.5563 67.7384 68.3617 67.9085C68.1671 68.0787 68.0112 68.2885 67.9045 68.5239C67.7978 68.7593 67.7427 69.0149 67.7429 69.2733V74.7489C67.742 75.2959 67.9383 75.8249 68.2959 76.2388C68.6535 76.6528 69.1484 76.9239 69.6898 77.0024L76.8542 77.9758C75.6715 77.3771 73.6468 76.3209 72.7026 75.4108C71.4906 74.2378 70.673 71.814 71.88 70.9671C72.7804 70.3392 76.0171 70.5242 77.1122 70.641C91.7963 72.2131 106.734 73.0746 120.61 77.0608C127.463 79.0076 134.588 81.6943 141.538 80.0346C143.437 79.5771 145.247 78.7983 147.145 78.3408C147.52 78.2483 147.895 78.1753 148.275 78.1023L69.7969 67.4774ZM74.1773 73.8046C74.3384 73.9532 74.5292 74.066 74.737 74.1356C75.016 74.2488 75.318 74.2939 75.618 74.267C75.7684 74.248 75.9123 74.1941 76.0382 74.1096C76.1641 74.0251 76.2686 73.9123 76.3432 73.7803C76.7715 72.9918 75.6812 71.9308 74.9122 71.9454C74.704 71.9595 74.504 72.0322 74.3354 72.1553C74.1668 72.2783 74.0365 72.4466 73.9596 72.6407C73.8826 72.8347 73.8623 73.0466 73.9008 73.2517C73.9394 73.4568 74.0352 73.6469 74.1773 73.7998V73.8046ZM78.6356 75.0409C78.2754 74.8365 77.5064 74.6175 77.2436 75.0847C77.2116 75.163 77.1963 75.2471 77.1989 75.3316C77.2015 75.4161 77.2217 75.4992 77.2585 75.5753C77.2952 75.6515 77.3475 75.7191 77.412 75.7738C77.4765 75.8284 77.5518 75.8689 77.633 75.8926C77.9725 76.0372 78.3494 76.0696 78.7086 75.9851C78.7647 75.9709 78.8174 75.9455 78.8634 75.9103C78.9094 75.8752 78.9478 75.8311 78.9763 75.7807C79.0131 75.6363 78.9994 75.4837 78.9374 75.3482C78.8754 75.2127 78.7689 75.1026 78.6356 75.036V75.0409Z" fill="#9CBB30"/>
<path d="M170.152 77.0996L69.7092 63.4717C69.1683 63.3943 68.6735 63.1242 68.3158 62.711C67.9581 62.2979 67.7616 61.7695 67.7624 61.223V55.7329C67.7629 55.4747 67.8185 55.2195 67.9255 54.9845C68.0325 54.7495 68.1884 54.54 68.3828 54.37C68.5772 54.2 68.8056 54.0734 69.0528 53.9988C69.3 53.9241 69.5603 53.903 69.8163 53.9369L170.172 67.526L170.152 77.0996Z" fill="#9CBB30"/>
<path opacity="0.15" d="M69.7969 53.9369C69.5409 53.903 69.2806 53.9241 69.0334 53.9988C68.7862 54.0734 68.5578 54.2 68.3634 54.37C68.169 54.54 68.0131 54.7495 67.9061 54.9845C67.7991 55.2195 67.7435 55.4747 67.7429 55.7329V61.2376C67.7421 61.7841 67.9386 62.3125 68.2963 62.7256C68.654 63.1388 69.1488 63.4089 69.6898 63.4863L80.5678 64.9464C79.9108 64.6836 79.2537 64.4159 78.621 64.1385C76.5914 63.2721 74.4985 62.2354 73.2671 60.4005C72.5419 59.3151 72.4251 57.4559 73.6711 57.0616C73.9794 56.982 74.3005 56.9655 74.6153 57.013C81.332 57.6116 87.4646 61.3934 94.1812 61.9239C99.0143 62.3181 103.95 61.0235 108.69 62.0505C112.584 62.8973 116.03 65.2579 119.885 66.2654C123.871 67.3021 128.057 66.8105 131.945 65.6035C134.117 65.0017 136.229 64.2001 138.253 63.2088L69.7969 53.9369Z" fill="black"/>
<path opacity="0.15" d="M75.3699 58.8675C75.9102 58.8285 76.6646 59.3153 76.6256 59.909C76.6248 59.9875 76.5933 60.0626 76.538 60.1183C76.4538 60.185 76.3485 60.2195 76.2411 60.2157C76.007 60.237 75.7711 60.2042 75.5517 60.1198C75.3323 60.0354 75.1352 59.9017 74.9757 59.729C74.9082 59.6542 74.864 59.5612 74.8487 59.4617C74.8334 59.3621 74.8476 59.2602 74.8895 59.1686C74.9315 59.077 74.9993 58.9996 75.0847 58.9461C75.17 58.8926 75.2692 58.8653 75.3699 58.8675Z" fill="black"/>
<path opacity="0.15" d="M79.2052 61.9337C78.8451 62.7465 77.2292 62.5372 77.1318 61.6222C77.1258 61.5079 77.1451 61.3937 77.1882 61.2877C77.2314 61.1817 77.2973 61.0865 77.3814 61.0089C77.4656 60.9313 77.5657 60.8732 77.6749 60.8387C77.784 60.8042 77.8994 60.7942 78.0128 60.8094C78.3382 60.8069 78.6568 60.9018 78.9278 61.0819C79.0584 61.1761 79.1557 61.3094 79.2055 61.4625C79.2554 61.6156 79.2553 61.7806 79.2052 61.9337Z" fill="black"/>
<path d="M77.2486 122.641C83.2303 123.449 87.9271 126.448 93.6703 127.363C99.4136 128.278 104.631 127.1 107.634 128.015C110.637 128.93 112.934 130.448 117.923 129.84C122.45 129.488 126.999 129.539 131.517 129.991C131.517 129.991 128.514 127.771 106.208 124.9C84.525 122.111 77.2486 122.641 77.2486 122.641Z" fill="#EBEBEB"/>
<path d="M72.7221 108.488C77.8083 109.174 79.6919 112.124 84.6758 112.868C89.6598 113.613 94.269 112.416 96.7707 112.742C102.319 113.472 103.799 114.956 108.067 115.662C112.336 116.368 116.298 114.406 119.554 114.849C119.554 114.849 115.699 112.119 95.6318 109.529C75.5645 106.94 72.7221 108.488 72.7221 108.488Z" fill="#EBEBEB"/>
<path d="M133.776 116.606C141.295 117.774 142.741 120.013 148.718 121.157C154.695 122.301 159.197 120.184 162.832 120.695C162.832 120.695 159.275 118.261 148.299 117.015C137.324 115.769 133.776 116.606 133.776 116.606Z" fill="#EBEBEB"/>
<path d="M101.127 98.7974C107.62 99.6735 109.085 101.513 116.784 103.119C124.484 104.726 126.645 103.119 129.755 103.606C132.866 104.093 134.413 107.149 139.349 107.665C143.476 108.094 145.418 104.813 149.336 105.344C149.336 105.344 144.887 102.482 126.105 100.233C107.323 97.9846 101.127 98.7974 101.127 98.7974Z" fill="#EBEBEB"/>
<path d="M72.7221 81.412C77.5893 82.0739 82.6268 85.4955 87.489 85.9579C92.3513 86.4203 94.3809 85.442 98.4352 85.8654C102.49 86.2889 104.787 90.129 108.569 90.6401C112.35 91.1511 115.276 87.1747 119.276 87.7198C119.276 87.7198 113.747 84.5075 97.3985 82.5898C81.0498 80.6722 72.7221 81.412 72.7221 81.412Z" fill="#EBEBEB"/>
<path d="M117.904 73.9896C125.691 75.0409 130.583 78.0878 137.64 79.2218C144.698 80.3559 147.91 78.0537 151.551 78.5453C151.551 78.5453 140.492 73.3715 117.904 73.9896Z" fill="#EBEBEB"/>
<path d="M74.007 54.5016C79.8476 55.2949 86.1749 58.6046 92.5314 59.3249C98.8879 60.0452 104.884 59.8116 110.725 60.5076C116.565 61.2036 119.739 64.45 125.501 65.0876C131.264 65.7252 137.431 63.0921 141.758 63.681C141.758 63.681 127.419 58.2103 106.889 55.8936C86.3598 53.5768 74.007 54.5016 74.007 54.5016Z" fill="#EBEBEB"/>
<path d="M61.9366 90.6838C61.9366 96.7142 60.4765 100.822 60.4765 105.83C60.4765 110.839 60.6177 111.233 60.6177 114.864C60.6177 118.495 57.8482 123.849 58.7487 126.73C59.8584 130.293 61.5911 130.054 65.6503 130.624L61.9366 90.6838Z" fill="#F0F0F0"/>
<path d="M169.233 61.5784C175.317 65.7544 171.467 67.8716 172.718 70.641C174.105 73.7073 175.151 78.8859 170.153 81.0664V74.8024C170.153 70.3246 167.768 67.4579 164.006 66.6937L169.233 61.5784Z" fill="#EBEBEB"/>
<path opacity="0.1" d="M105.157 14.2991L105.025 14.3429C100.368 15.8916 95.823 17.7585 91.4218 19.9303C90.8553 21.0032 90.7246 22.2532 91.0567 23.4201C87.7812 23.459 84.525 24.194 82.0233 25.6395C77.9495 27.9903 77.1124 31.4801 79.507 34.3322C76.2043 34.0474 72.8795 34.4996 69.7728 35.6561C67.5291 38.1252 65.57 40.8386 63.9322 43.7453C64.4189 45.2979 65.7038 46.7823 67.7821 47.9845C68.4692 48.3791 69.187 48.7177 69.9285 48.9969L79.361 50.2721C82.2146 50.1239 84.9994 49.3425 87.5135 47.9845C90.5116 46.2518 91.855 43.9302 91.5483 41.6573C92.1992 42.2571 92.916 42.7812 93.685 43.2196C99.4574 46.5536 108.817 46.5536 114.584 43.2196C120.352 39.8856 120.357 34.488 114.584 31.154C113.109 30.3272 111.525 29.7128 109.878 29.3288C111.361 28.9778 112.788 28.4207 114.117 27.674C117.524 25.7271 118.741 22.9674 117.782 20.4414C114.312 17.6671 111.942 15.7933 111.426 15.3747C109.402 14.7038 107.289 14.3412 105.157 14.2991Z" fill="black"/>
<path d="M101.784 10.1863C99.3466 11.0301 97.0978 12.343 95.1648 14.0508C93.4029 15.5548 91.9476 19.0835 93.5489 22.2666C95.6125 26.3647 99.9589 26.2382 99.9589 26.2382C99.4597 23.6464 99.5078 20.979 100.1 18.4069C101.108 14.4159 101.784 10.1863 101.784 10.1863Z" fill="#F0F0F0"/>
<path d="M106.865 9.97705C107.8 11.3058 111.095 12.0358 113.29 13.4668C115.485 14.8977 116.585 15.8517 117.183 17.7353C117.782 19.6189 117.339 22.4029 114.881 23.5758C112.423 24.7488 107.41 20.7334 106.875 19.2879C106.339 17.8423 106.865 9.97705 106.865 9.97705Z" fill="#F0F0F0"/>
<path d="M105.337 7.52399C106.564 8.65803 107.06 9.67526 106.987 11.7195C106.933 13.2867 106.88 16.8056 111.367 19.2197C115.324 21.3369 115.796 23.4298 113.684 25.2793C111.655 27.0607 108.851 26.6713 108.851 26.6713C108.851 26.6713 102.967 25.3182 101.769 20.9184C100.572 16.5185 102.874 9.47571 105.337 7.52399Z" fill="#FAFAFA"/>
<path d="M104.831 27.9465C108.656 27.9465 110.185 26.3014 108.418 24.1161C107.537 23.0307 105.945 22.5829 104.943 21.4781C103.805 20.3652 103.086 18.8935 102.908 17.3118C102.568 13.4181 107.289 9.33943 104.539 5.93243C104.237 7.79168 103.463 8.85271 100.713 11.0819C98.9649 12.4975 97.6985 14.4202 97.0883 16.5854C96.4782 18.7506 96.5543 21.0517 97.3061 23.1718C98.2747 25.912 102.368 27.9465 104.831 27.9465Z" fill="#F5F5F5"/>
<path opacity="0.1" d="M96.8826 24.0235C96.4446 23.1085 96.3959 20.7869 96.6831 19.6431C97.1698 22.2373 98.9804 24.3302 102.494 25.3085C103.756 25.685 105.075 25.8285 106.388 25.7319C107.887 25.5859 108.758 25.0164 108.681 24.447C108.622 24.352 108.557 24.2609 108.486 24.1744C108.408 24.0713 108.324 23.9738 108.233 23.8824C108.194 23.8435 108.15 23.7948 108.106 23.7558C108.07 23.7192 108.031 23.6851 107.989 23.6536C107.883 23.5546 107.769 23.4635 107.649 23.3811C107.604 23.3427 107.557 23.3069 107.508 23.274L107.425 23.2253C107.186 23.0696 106.938 22.9187 106.729 22.7873C106.271 22.5001 105.867 22.2422 105.6 22.0523L105.429 21.9112C105.327 21.8285 105.235 21.7409 105.137 21.6532C105.137 21.6532 105.137 21.6532 105.103 21.6192C105.069 21.5851 104.938 21.4488 104.855 21.3612C104.772 21.2736 104.602 21.0692 104.495 20.928L104.31 20.709C104.292 20.6887 104.277 20.6657 104.266 20.6409C104.169 20.5209 104.078 20.3958 103.994 20.2661C103.891 20.1201 103.804 19.9741 103.726 19.8378C103.522 19.4734 103.349 19.0924 103.21 18.6989L103.137 18.4507C103.135 18.4377 103.135 18.4247 103.137 18.4117C103.813 20.1542 105.755 21.5121 107.551 22.2811C109.189 22.9832 111 23.1781 112.75 22.8408C114.385 22.5975 114.438 21.7117 114.438 21.5948C114.426 21.567 114.408 21.5422 114.385 21.5218C113.571 20.5469 112.555 19.7612 111.406 19.2197C110.766 18.8795 110.164 18.4716 109.61 18.0029C110.282 18.4354 111.009 18.7759 111.771 19.0153C113.021 19.3967 114.334 19.529 115.636 19.4046C117.067 19.1077 117.305 18.4312 117.067 17.3848C117.11 17.5016 117.159 17.6135 117.198 17.7352C117.782 19.6188 117.354 22.4028 114.896 23.5758C114.689 24.2491 114.281 24.8434 113.728 25.2793C111.698 27.0606 108.895 26.6713 108.895 26.6713C108.325 27.4646 106.948 27.9465 104.86 27.9465C103.111 27.8345 101.428 27.2435 99.9927 26.2381C99.9927 26.2381 95.6464 26.3646 93.5827 22.2665C93.049 21.2006 92.8184 20.0086 92.9159 18.8206C92.9397 19.9965 93.3368 21.1343 94.0499 22.0696C94.763 23.0049 95.755 23.6892 96.8826 24.0235Z" fill="black"/>
<path d="M87.9029 18.0856C85.4102 18.9515 83.1105 20.2956 81.1327 22.0426C79.3319 23.5806 77.8377 27.192 79.4779 30.453C81.5903 34.6436 86.0339 34.5122 86.0339 34.5122C85.5222 31.8577 85.572 29.1254 86.18 26.4912C87.2167 22.4174 87.9029 18.0856 87.9029 18.0856Z" fill="#F0F0F0"/>
<path d="M93.1008 17.8763C94.0742 19.2343 97.4325 19.9838 99.6763 21.444C101.92 22.9041 103.044 23.8775 103.648 25.8244C104.251 27.7712 103.808 30.599 101.292 31.7964C98.7759 32.9937 93.6508 28.8761 93.1008 27.4159C92.5508 25.9558 93.1008 17.8763 93.1008 17.8763Z" fill="#F0F0F0"/>
<path d="M91.5288 15.3649C92.7845 16.5281 93.2907 17.5648 93.2177 19.6577C93.1641 21.259 93.1106 24.8655 97.71 27.3283C101.764 29.499 102.246 31.6406 100.085 33.529C98.0069 35.3493 95.1402 34.9551 95.1402 34.9551C95.1402 34.9551 89.1195 33.5728 87.893 29.0707C86.6665 24.5686 89.0222 17.3604 91.5288 15.3649Z" fill="#FAFAFA"/>
<path d="M91.042 36.2595C94.9357 36.2595 96.5321 34.5804 94.7118 32.3415C93.8114 31.2318 92.1809 30.7743 91.1588 29.6451C89.994 28.5058 89.2567 27.0003 89.0708 25.3815C88.7252 21.3807 93.5632 17.2242 90.7451 13.7344C90.4336 15.6375 89.6403 16.7229 86.8514 19.0055C85.0667 20.4574 83.7758 22.4265 83.1561 24.642C82.5364 26.8576 82.6184 29.2108 83.3909 31.3778C84.3108 34.1764 88.5014 36.2595 91.042 36.2595Z" fill="#F5F5F5"/>
<path opacity="0.1" d="M82.9042 32.2491C82.4516 31.3097 82.4175 28.9345 82.6949 27.7908C83.1817 30.4434 85.0458 32.5849 88.6426 33.5875C89.9287 33.9738 91.2752 34.119 92.6142 34.0158C94.1473 33.8698 95.0477 33.2858 94.9601 32.7066C94.9008 32.6091 94.8341 32.5164 94.7606 32.4292C94.6827 32.3219 94.5965 32.221 94.5026 32.1274L94.3712 31.996C94.3358 31.958 94.2967 31.9238 94.2544 31.8938C94.1456 31.7916 94.0284 31.6988 93.904 31.6163C93.8553 31.5725 93.8066 31.5385 93.7628 31.5044L93.6752 31.4557C93.4318 31.2935 93.1934 31.1426 92.9597 31.0031C92.4974 30.7111 92.0788 30.4482 91.8111 30.2535C91.7501 30.208 91.6916 30.1593 91.6359 30.1075C91.5337 30.0248 91.4363 29.9323 91.339 29.8447C91.339 29.8447 91.3146 29.8447 91.3049 29.8106C91.2124 29.7279 91.1297 29.6354 91.0469 29.5478C90.9642 29.4602 90.789 29.246 90.677 29.1C90.6111 29.0307 90.5494 28.9576 90.4921 28.881C90.4726 28.8591 90.4562 28.8345 90.4434 28.808C90.24 28.5495 90.0562 28.2762 89.8934 27.9903C89.6759 27.6095 89.4919 27.2106 89.3434 26.7979C89.3094 26.6859 89.2802 26.5935 89.2704 26.5448C89.2673 26.532 89.2673 26.5186 89.2704 26.5058C89.9664 28.2872 91.9522 29.6792 93.792 30.4628C95.4609 31.1879 97.3087 31.3964 99.0972 31.0615C100.771 30.8133 100.83 29.9031 100.83 29.7863C100.816 29.7568 100.796 29.7304 100.771 29.7084C99.9388 28.7127 98.899 27.9105 97.7247 27.3576C97.0696 27.0077 96.4529 26.5901 95.8849 26.1116C96.5739 26.5537 97.3186 26.9023 98.0994 27.1483C99.3781 27.5383 100.721 27.6722 102.052 27.5425C103.512 27.2408 103.76 26.5302 103.512 25.4789C103.555 25.6006 103.604 25.7125 103.643 25.839C104.242 27.7859 103.804 30.6137 101.287 31.811C101.073 32.4993 100.656 33.1068 100.09 33.5535C98.0118 35.3738 95.1451 34.9795 95.1451 34.9795C94.561 35.7875 93.1349 36.2839 91.0177 36.2839C89.226 36.1703 87.5 35.5658 86.0289 34.5366C86.0289 34.5366 81.5852 34.668 79.4729 30.4774C78.9254 29.3863 78.6896 28.1653 78.7915 26.9488C78.8254 28.1545 79.2423 29.318 79.9817 30.271C80.7211 31.2239 81.7447 31.9167 82.9042 32.2491Z" fill="black"/>
<path d="M74.0072 30.1951C71.481 31.0706 69.1511 32.4331 67.1494 34.2056C65.3243 35.7582 63.8106 39.4183 65.4752 42.7182C67.6118 46.9672 72.1139 46.8358 72.1139 46.8358C71.5968 44.1456 71.6482 41.3769 72.2648 38.7077C73.2869 34.5852 74.0072 30.1951 74.0072 30.1951Z" fill="#F0F0F0"/>
<path d="M79.2491 29.981C80.2225 31.3584 83.6295 32.1176 85.9073 33.5972C88.1852 35.0768 89.3143 36.0697 89.9325 38.0215C90.5506 39.9732 90.0931 42.8594 87.5476 44.0713C85.0021 45.2832 79.804 41.151 79.2734 39.6325C78.7429 38.1139 79.2491 29.981 79.2491 29.981Z" fill="#F0F0F0"/>
<path d="M77.6672 27.4403C78.9375 28.6182 79.4486 29.6695 79.3756 31.7867C79.322 33.4123 79.2685 37.0626 83.9263 39.5741C88.0293 41.7692 88.5209 43.9545 86.3599 45.8527C84.2524 47.6973 81.3468 47.3128 81.3468 47.3128C81.3468 47.3128 75.2239 45.8819 74.0071 41.3214C72.7903 36.7609 75.112 29.4602 77.6672 27.4403Z" fill="#FAFAFA"/>
<path d="M77.1417 48.6075C81.1036 48.6075 82.7049 46.8992 80.8602 44.636C79.9501 43.5117 78.2952 43.0493 77.2585 41.9006C76.0796 40.7468 75.3338 39.2224 75.1462 37.5835C74.7958 33.5292 79.697 29.3093 76.84 25.7904C76.5285 27.7373 75.7254 28.8129 72.8732 31.1443C71.0662 32.6144 69.759 34.6083 69.1315 36.8517C68.504 39.0952 68.5869 41.4779 69.3689 43.6723C70.3472 46.4952 74.5865 48.6075 77.1417 48.6075Z" fill="#F5F5F5"/>
<path opacity="0.1" d="M68.9161 44.5386C68.4586 43.5895 68.4294 41.1851 68.7068 40.0267C69.1935 42.7085 71.0917 44.8939 74.7323 45.8965C76.0361 46.2868 77.4005 46.4337 78.7574 46.3297C80.3101 46.1837 81.191 45.5947 81.1326 45.001C81.0716 44.9034 81.0033 44.8107 80.9282 44.7235C80.8492 44.6156 80.763 44.5132 80.6702 44.4169L80.534 44.2855C80.4974 44.2473 80.4584 44.2115 80.4171 44.1784C80.3045 44.0788 80.1858 43.9861 80.0618 43.901C80.0132 43.8572 79.9645 43.8231 79.9158 43.7842L79.8477 43.716L79.1225 43.2585C78.6358 42.9665 78.2269 42.6988 77.9544 42.4992L77.7792 42.3532C77.6741 42.2692 77.5734 42.1799 77.4774 42.0855C77.4774 42.0855 77.4774 42.0855 77.4385 42.0515C77.3508 41.9687 77.2632 41.8763 77.1805 41.7838C77.0978 41.6913 76.9225 41.482 76.8057 41.336C76.6889 41.19 76.6743 41.1851 76.6159 41.1072C76.5981 41.0857 76.5818 41.0629 76.5672 41.0391C76.3659 40.7729 76.1807 40.495 76.0124 40.2068C75.7911 39.8222 75.6054 39.4181 75.4575 38.9998L75.3797 38.7467C75.3777 38.7321 75.3777 38.7174 75.3797 38.7029C76.0805 40.5086 78.0907 41.9201 79.9548 42.7134C81.6526 43.44 83.5286 43.6434 85.3427 43.2975C87.0364 43.0444 87.0949 42.1196 87.0949 42.0028C87.0823 41.9723 87.0622 41.9455 87.0365 41.9249C86.1929 40.9157 85.14 40.1019 83.9507 39.54C83.2858 39.1881 82.6608 38.7655 82.0866 38.2794C82.7852 38.7267 83.5396 39.0801 84.3303 39.3307C85.625 39.7241 86.9842 39.8597 88.3311 39.7298C89.8156 39.4281 90.0638 38.7077 89.8156 37.6418C89.8594 37.7635 89.9081 37.8755 89.9519 38.002C90.5603 39.9489 90.1125 42.8399 87.567 44.0519C87.3534 44.7484 86.9323 45.3631 86.3599 45.8138C84.2525 47.6584 81.3468 47.2739 81.3468 47.2739C80.7578 48.0916 79.3123 48.5978 77.1659 48.5978C75.3519 48.4787 73.6049 47.8661 72.1138 46.8261C72.1138 46.8261 67.6117 46.9575 65.475 42.7085C64.9199 41.6041 64.6807 40.3678 64.7839 39.1361C64.8097 40.3587 65.2241 41.5413 65.967 42.5127C66.71 43.484 67.7429 44.1936 68.9161 44.5386Z" fill="black"/>
<path d="M103.77 42.436C102.164 42.4513 100.563 42.2616 99.0048 41.8714C98.108 41.6348 97.2373 41.3087 96.4057 40.898C91.9182 38.6883 90.0784 34.4052 90.1758 30.3363C90.2829 24.4958 94.9943 16.3579 97.5982 12.9022C99.6618 10.1523 100.694 8.88684 102.348 8.48774C102.895 8.36879 103.454 8.31972 104.013 8.34172C106.49 8.47313 108.228 10.6049 110.053 13.092L110.194 13.2819C112.209 16.0756 117.748 24.7342 117.982 30.3168C118.176 36.0844 113.704 42.436 103.77 42.436Z" fill="#9CBB30"/>
<path d="M103.77 42.436C102.164 42.4513 100.563 42.2616 99.0048 41.8714C98.108 41.6348 97.2373 41.3087 96.4057 40.898C91.9182 38.6883 90.0784 34.4052 90.1758 30.3363C90.2829 24.4958 94.9943 16.3579 97.5982 12.9022C99.6618 10.1523 100.694 8.88684 102.348 8.48774C102.895 8.36879 103.454 8.31972 104.013 8.34172C106.49 8.47313 108.228 10.6049 110.053 13.092L110.194 13.2819C112.209 16.0756 117.748 24.7342 117.982 30.3168C118.176 36.0844 113.704 42.436 103.77 42.436Z" fill="#9CBB30"/>
<path opacity="0.1" d="M103.77 42.436C102.164 42.4513 100.563 42.2615 99.0047 41.8714C98.6243 40.1957 98.6243 38.4561 99.0047 36.7804C99.1698 36.1342 99.5511 35.5639 100.085 35.1645C100.355 34.9748 100.68 34.88 101.01 34.895C101.339 34.91 101.654 35.0338 101.906 35.2472C102.275 35.6171 102.392 36.2547 102.913 36.4105C103.507 36.5954 104.037 35.8799 104.032 35.2521C104.028 34.6242 103.702 34.0499 103.629 33.4269C103.588 33.0395 103.644 32.6481 103.791 32.2873C103.937 31.9265 104.171 31.6074 104.471 31.3584C105.152 30.7987 106.369 30.1805 106.583 29.2606C106.734 28.6133 106.369 27.9465 106.408 27.2846C106.45 26.9666 106.555 26.6602 106.716 26.3829C106.877 26.1055 107.092 25.8628 107.347 25.6687C107.834 25.2501 108.403 24.9386 108.9 24.5298C109.127 24.3601 109.311 24.138 109.435 23.8825C109.52 23.6363 109.566 23.3785 109.571 23.1183C109.66 22.6127 109.72 22.1024 109.751 21.59C109.763 21.3326 109.716 21.0758 109.613 20.8396C109.51 20.6033 109.354 20.3938 109.158 20.2272C108.939 20.0781 108.686 19.9876 108.423 19.9644C107.914 19.9575 107.408 19.9037 106.909 19.8038C106.709 19.7381 106.524 19.6339 106.364 19.4972C105.938 19.1104 105.621 18.6187 105.444 18.0711C105.157 17.3264 105.084 16.6402 105.726 16.022C106.174 15.6245 106.736 15.3807 107.332 15.326C107.925 15.2798 108.521 15.2798 109.114 15.326C109.304 15.3811 109.506 15.3768 109.694 15.3138C109.882 15.2508 110.046 15.132 110.164 14.9733C110.283 14.8147 110.35 14.6237 110.357 14.4258C110.364 14.2279 110.311 14.0326 110.204 13.8659C110.126 13.6215 110.014 13.389 109.873 13.1748C109.817 13.0905 109.757 13.0093 109.693 12.9314L109.858 13.0579C109.858 13.0579 109.912 13.0969 109.941 13.1212L110.194 13.2964C112.209 16.0902 117.748 24.7488 117.982 30.3314C118.176 36.0844 113.703 42.436 103.77 42.436Z" fill="white"/>
<path opacity="0.15" d="M110.195 13.2965L109.942 13.1212C109.912 13.1212 109.883 13.0823 109.859 13.058L109.693 12.9314L109.362 12.6345C109.172 12.4092 108.922 12.2408 108.642 12.1478C108.439 12.1053 108.227 12.1394 108.047 12.2436C107.867 12.3478 107.733 12.5148 107.669 12.7124C107.62 12.8925 107.669 13.0872 107.605 13.2721C107.594 13.3687 107.552 13.4589 107.484 13.5285C107.416 13.5981 107.327 13.6432 107.231 13.6566C107.124 13.6465 107.021 13.6133 106.929 13.5593C105.989 13.1358 105.099 13.7004 104.31 14.1628C103.17 14.7649 102.222 15.6757 101.575 16.7911C101.424 17.0636 101.322 17.38 100.952 17.4384C100.582 17.4968 100.236 17.2583 99.8763 17.3216C99.7012 17.355 99.5353 17.4258 99.39 17.5291C99.2447 17.6324 99.1234 17.7658 99.0343 17.9202C98.8366 18.3458 98.7037 18.7986 98.64 19.2636C98.4657 19.9272 98.2021 20.5641 97.8564 21.1569C97.5887 21.6436 97.3064 22.3883 96.7662 22.6511C96.4644 22.802 96.0994 22.8069 95.7928 22.948C95.5426 23.0778 95.3364 23.2789 95.2004 23.5257C95.0644 23.7726 95.0046 24.0543 95.0286 24.3351C95.0911 24.8881 95.2976 25.4151 95.6273 25.8634C95.8063 26.0808 95.9089 26.351 95.9193 26.6324C95.8706 27.0559 95.4083 27.2992 95.053 27.5523C93.5685 28.6377 93.6902 30.7646 93.7291 32.3464C93.7924 34.7313 94.1331 37.7003 95.5543 39.6471C95.8755 40.0949 96.1627 40.5135 96.4304 40.898C91.9429 38.6883 90.1031 34.4052 90.2004 30.3363C90.3075 24.4957 95.0189 16.3579 97.6228 12.9022C99.6865 10.1523 100.718 8.88684 102.373 8.48774C102.92 8.36879 103.479 8.31972 104.038 8.34172C106.515 8.47313 108.253 10.6049 110.078 13.092L110.195 13.2965Z" fill="black"/>
<path d="M96.9701 14.4499C96.7532 14.744 96.5886 15.0733 96.4834 15.4233C96.4054 15.6094 96.3739 15.8117 96.3917 16.0127C96.4095 16.2137 96.4761 16.4073 96.5856 16.5768C96.8533 16.9273 97.1599 16.6839 97.4033 16.4162C97.6075 16.1952 97.7578 15.9299 97.8422 15.6411C97.9267 15.3523 97.943 15.0478 97.89 14.7516C97.884 14.6524 97.8539 14.5562 97.8021 14.4714C97.7503 14.3865 97.6786 14.3156 97.5931 14.2649C97.4828 14.2285 97.364 14.2268 97.2526 14.2598C97.1413 14.2929 97.0427 14.3592 96.9701 14.4499Z" fill="#9CBB30"/>
<path d="M102.689 11.6415C102.564 11.9795 102.501 12.3373 102.504 12.6977C102.486 12.8994 102.516 13.1026 102.593 13.2899C102.671 13.4772 102.792 13.643 102.947 13.7733C103.312 14.0361 103.531 13.7198 103.687 13.3985C103.814 13.127 103.876 12.8298 103.87 12.5301C103.863 12.2304 103.787 11.9363 103.648 11.6707C103.611 11.5811 103.553 11.5014 103.479 11.438C103.406 11.3746 103.319 11.3293 103.224 11.3057C103.111 11.2976 102.998 11.3258 102.902 11.3862C102.806 11.4465 102.731 11.536 102.689 11.6415Z" fill="#9CBB30"/>
<path d="M91.446 29.9615C91.4613 30.0066 91.4881 30.0468 91.5238 30.0783C91.5805 30.1133 91.6478 30.1271 91.7137 30.1172C91.8624 30.0968 92.0043 30.0422 92.1284 29.9577C92.2526 29.8733 92.3555 29.7613 92.4291 29.6305C92.5675 29.3754 92.6363 29.0884 92.6287 28.7982C92.6359 28.4685 92.5899 28.1398 92.4924 27.8248C92.4849 27.7824 92.4645 27.7433 92.434 27.7129C92.4047 27.6882 92.3695 27.6714 92.3318 27.6642C92.1817 27.646 92.0296 27.6746 91.8964 27.746C91.7631 27.8175 91.6551 27.9283 91.5871 28.0633C91.2983 28.6545 91.2478 29.3341 91.446 29.9615Z" fill="#9CBB30"/>
<path d="M105.692 33.2176C105.627 33.2306 105.566 33.2597 105.515 33.3022C105.464 33.3447 105.425 33.3993 105.4 33.4609C105.359 33.5795 105.344 33.7058 105.356 33.8308C105.377 34.1267 105.464 34.4143 105.609 34.6728C105.654 34.7656 105.725 34.8433 105.814 34.8967C106.15 35.0817 106.271 34.6436 106.271 34.41C106.267 34.1625 106.216 33.918 106.12 33.6897C106.07 33.5246 105.978 33.3754 105.853 33.2565C105.806 33.224 105.749 33.2101 105.692 33.2176Z" fill="#FAFAFA"/>
<path d="M104.397 22.836C104.33 22.8406 104.266 22.8623 104.21 22.8989C104.153 22.9356 104.107 22.9859 104.076 23.0453C104.019 23.1552 103.987 23.2767 103.984 23.4006C103.963 23.696 104.009 23.9923 104.12 24.2669C104.152 24.3644 104.211 24.4506 104.29 24.5151C104.602 24.739 104.777 24.3205 104.811 24.0966C104.837 23.8504 104.819 23.6015 104.758 23.3616C104.73 23.1835 104.656 23.0158 104.543 22.8749C104.502 22.8433 104.449 22.8293 104.397 22.836Z" fill="#FAFAFA"/>
<path d="M102.723 11.7341C102.656 11.7387 102.592 11.7604 102.535 11.797C102.479 11.8337 102.433 11.884 102.402 11.9434C102.344 12.0548 102.312 12.178 102.31 12.3035C102.288 12.5989 102.335 12.8952 102.446 13.1699C102.48 13.2673 102.541 13.3533 102.621 13.4181C102.928 13.642 103.108 13.2185 103.137 12.9947C103.165 12.7501 103.147 12.5024 103.083 12.2646C103.054 12.0951 102.982 11.9358 102.874 11.8022C102.855 11.781 102.832 11.7639 102.806 11.7522C102.78 11.7404 102.752 11.7343 102.723 11.7341Z" fill="#FAFAFA"/>
<path d="M96.7417 32.8963C96.6747 32.9031 96.6102 32.9256 96.5536 32.962C96.4969 32.9984 96.4496 33.0476 96.4156 33.1056C96.3603 33.2178 96.3304 33.3408 96.3279 33.4658C96.3065 33.7616 96.3548 34.0584 96.4691 34.3321C96.5014 34.4292 96.5605 34.5153 96.6394 34.5804C96.9509 34.8043 97.1262 34.3808 97.1554 34.1569C97.1838 33.9124 97.1657 33.6646 97.1018 33.4269C97.0751 33.2484 97.0011 33.0804 96.8877 32.9401C96.8675 32.9234 96.8442 32.9109 96.8191 32.9034C96.794 32.8958 96.7677 32.8934 96.7417 32.8963Z" fill="#FAFAFA"/>
<path d="M111.547 34.6291C111.48 34.6279 111.413 34.6438 111.354 34.6753C111.294 34.7068 111.244 34.7528 111.207 34.8092C111.137 34.9144 111.094 35.0344 111.08 35.1596C111.034 35.4505 111.053 35.7478 111.134 36.0308C111.157 36.1305 111.207 36.2216 111.28 36.2937C111.567 36.5467 111.766 36.1379 111.839 35.9189C111.886 35.6761 111.886 35.4267 111.839 35.1839C111.829 35.0098 111.772 34.8417 111.674 34.6972C111.642 34.6596 111.597 34.6353 111.547 34.6291Z" fill="#FAFAFA"/>
<path d="M106.568 17.2096C106.505 17.2289 106.447 17.2641 106.401 17.3118C106.355 17.3595 106.322 17.4181 106.305 17.4822C106.276 17.6021 106.276 17.7273 106.305 17.8472C106.358 18.1413 106.474 18.4204 106.646 18.6649C106.701 18.752 106.778 18.8226 106.87 18.8693C107.225 19.0202 107.303 18.5724 107.279 18.3485C107.247 18.1026 107.17 17.8649 107.05 17.6476C106.983 17.4871 106.873 17.3476 106.734 17.2437C106.71 17.2262 106.683 17.2141 106.655 17.2083C106.626 17.2024 106.597 17.2028 106.568 17.2096Z" fill="#FAFAFA"/>
<path d="M91.7817 27.9514C91.7143 27.9463 91.6466 27.9578 91.5847 27.985C91.5227 28.0122 91.4684 28.0541 91.4264 28.1071C91.3495 28.2057 91.2962 28.3206 91.2707 28.4429C91.1971 28.7295 91.1888 29.0289 91.2463 29.319C91.2602 29.4196 91.3024 29.5141 91.368 29.5916C91.6357 29.8641 91.8888 29.4796 91.9569 29.2655C92.0281 29.0274 92.0562 28.7785 92.0397 28.5305C92.0409 28.36 91.9972 28.1922 91.9131 28.0438C91.8986 28.0203 91.8795 28 91.8569 27.9841C91.8343 27.9682 91.8087 27.9571 91.7817 27.9514Z" fill="#FAFAFA"/>
<path d="M108.35 12.6491C108.289 12.6765 108.237 12.7191 108.197 12.7729C108.158 12.8266 108.133 12.8896 108.126 12.9558C108.113 13.0796 108.13 13.2046 108.175 13.3208C108.266 13.6054 108.419 13.8663 108.622 14.0849C108.691 14.1626 108.778 14.2213 108.875 14.2553C109.25 14.3624 109.26 13.9097 109.206 13.6907C109.14 13.4509 109.032 13.2249 108.885 13.0239C108.792 12.876 108.666 12.7524 108.515 12.6637C108.464 12.6378 108.405 12.6326 108.35 12.6491Z" fill="#FAFAFA"/>
<path d="M97.1067 14.6592C97.0415 14.6404 96.9727 14.6381 96.9064 14.6526C96.8401 14.667 96.7785 14.6977 96.727 14.7419C96.631 14.8247 96.5545 14.9278 96.5031 15.0437C96.3705 15.3099 96.3005 15.6029 96.2987 15.9003C96.2887 16.0019 96.3108 16.104 96.362 16.1923C96.5615 16.5087 96.8925 16.1923 97.0044 15.9782C97.1247 15.7609 97.2039 15.5233 97.2381 15.2773C97.2793 15.1177 97.2793 14.9502 97.2381 14.7906C97.2289 14.7595 97.212 14.7311 97.1891 14.7082C97.1661 14.6852 97.1378 14.6684 97.1067 14.6592Z" fill="#FAFAFA"/>
<path d="M99.9783 17.9592C99.9112 17.9535 99.8439 17.9643 99.7819 17.9906C99.72 18.0169 99.6655 18.0579 99.623 18.11C99.5451 18.2098 99.4917 18.3265 99.4672 18.4507C99.3878 18.7361 99.3762 19.0361 99.4331 19.3268C99.4471 19.4274 99.4893 19.5219 99.5548 19.5994C99.8177 19.8719 100.071 19.4874 100.144 19.2733C100.219 19.0377 100.249 18.7899 100.231 18.5432C100.234 18.3737 100.194 18.2062 100.115 18.0565C100.1 18.0318 100.08 18.0103 100.057 17.9936C100.033 17.9768 100.006 17.9651 99.9783 17.9592Z" fill="#FAFAFA"/>
<path d="M101.146 36.5467C101.081 36.5607 101.02 36.5906 100.969 36.634C100.918 36.6773 100.878 36.7326 100.854 36.7949C100.811 36.9114 100.796 37.0365 100.81 37.16C100.828 37.4559 100.913 37.7438 101.059 38.002C101.104 38.0947 101.175 38.1725 101.263 38.2259C101.599 38.4157 101.72 37.9728 101.72 37.7391C101.716 37.4916 101.665 37.2471 101.57 37.0188C101.517 36.8548 101.425 36.7061 101.302 36.5856C101.257 36.5529 101.201 36.539 101.146 36.5467Z" fill="#FAFAFA"/>
<path d="M108.875 26.5739C108.81 26.5879 108.749 26.6179 108.698 26.6612C108.647 26.7045 108.607 26.7598 108.583 26.8221C108.539 26.9385 108.524 27.0637 108.539 27.1872C108.558 27.4828 108.643 27.7705 108.788 28.0292C108.834 28.1209 108.905 28.1983 108.992 28.2531C109.328 28.4429 109.479 28 109.479 27.7664C109.47 27.5194 109.419 27.2758 109.328 27.046C109.273 26.8818 109.18 26.7332 109.055 26.6128C109.03 26.5934 109.001 26.5797 108.97 26.573C108.938 26.5663 108.906 26.5666 108.875 26.5739Z" fill="#FAFAFA"/>
<path d="M100.533 28.1996C100.465 28.1988 100.399 28.2143 100.339 28.2448C100.278 28.2753 100.227 28.3199 100.187 28.3748C100.12 28.4794 100.075 28.5971 100.056 28.7203C100.001 29.0112 100.013 29.3107 100.09 29.5964C100.114 29.696 100.163 29.788 100.231 29.8641C100.513 30.1172 100.742 29.7181 100.796 29.4991C100.851 29.2581 100.862 29.0092 100.83 28.7641C100.819 28.5915 100.765 28.4243 100.674 28.2774C100.657 28.2556 100.636 28.2374 100.611 28.224C100.587 28.2106 100.56 28.2023 100.533 28.1996Z" fill="#FAFAFA"/>
<path d="M114.945 29.723C114.879 29.7377 114.819 29.768 114.768 29.8112C114.717 29.8545 114.678 29.9094 114.652 29.9712C114.611 30.0881 114.597 30.2132 114.614 30.3363C114.629 30.6325 114.714 30.9208 114.862 31.1783C114.907 31.271 114.978 31.3488 115.066 31.4022C115.402 31.592 115.524 31.1491 115.524 30.9154C115.52 30.6679 115.468 30.4234 115.373 30.1951C115.32 30.0311 115.228 29.8825 115.105 29.7619C115.058 29.7294 115.001 29.7155 114.945 29.723Z" fill="#FAFAFA"/>
<path d="M96.0113 23.5417C95.9434 23.5363 95.8751 23.5482 95.813 23.5763C95.7509 23.6044 95.6969 23.6478 95.656 23.7023C95.5829 23.8038 95.5331 23.9201 95.51 24.043C95.4467 24.3316 95.4467 24.6305 95.51 24.9191C95.5284 25.0202 95.5738 25.1143 95.6414 25.1917C95.914 25.4545 96.1573 25.0651 96.2206 24.8461C96.2902 24.6094 96.3117 24.3612 96.2839 24.1161C96.2825 23.9452 96.2372 23.7777 96.1525 23.6293C96.136 23.6061 96.115 23.5863 96.0907 23.5713C96.0665 23.5562 96.0395 23.5462 96.0113 23.5417Z" fill="#FAFAFA"/>
<path d="M111.917 21.0449C111.855 21.0668 111.8 21.1042 111.756 21.1536C111.713 21.2031 111.683 21.2628 111.669 21.3272C111.64 21.4488 111.64 21.5755 111.669 21.6971C111.736 21.9861 111.866 22.2569 112.049 22.4904C112.11 22.5745 112.192 22.6415 112.287 22.6851C112.652 22.8214 112.701 22.3687 112.667 22.1497C112.624 21.9047 112.535 21.6701 112.404 21.4586C112.325 21.3024 112.208 21.1686 112.063 21.0692C112.02 21.0422 111.967 21.0334 111.917 21.0449Z" fill="#FAFAFA"/>
<path opacity="0.25" d="M108.642 28.8225H108.398C107.941 28.8225 107.946 29.2168 108.14 29.5039C108.279 29.6969 108.475 29.8415 108.7 29.9177C109.1 30.0447 109.529 30.044 109.929 29.9158C110.328 29.7876 110.678 29.5382 110.929 29.2022C111.156 28.8685 111.295 28.4831 111.333 28.0816C111.371 27.6801 111.308 27.2754 111.148 26.9049C110.822 26.1018 109.766 26.0483 109.893 27.0704C109.949 27.3294 109.977 27.5938 109.975 27.8589C109.956 28.0276 109.902 28.1908 109.819 28.3387C109.735 28.4867 109.623 28.6164 109.489 28.7203C109.226 28.8487 108.927 28.8847 108.642 28.8225Z" fill="white"/>
<path opacity="0.25" d="M104.67 25.0311C104.67 24.8607 104.806 24.7245 104.928 24.5979C105.213 24.3069 105.386 23.9239 105.415 23.5174C105.424 23.3146 105.385 23.1125 105.3 22.9279C105.215 22.7434 105.088 22.5817 104.928 22.4564C104.726 22.3308 104.533 22.1926 104.349 22.0427C104.206 21.8353 104.12 21.5946 104.097 21.3438C104.075 21.0931 104.118 20.8409 104.222 20.6117C104.267 20.3732 104.365 20.1475 104.507 19.9506C104.649 19.7538 104.833 19.5907 105.045 19.4728C105.687 19.21 106.442 19.6724 107.113 19.4728C107.289 19.4247 107.45 19.3309 107.578 19.201C107.706 19.0711 107.798 18.9097 107.843 18.733C107.866 18.5271 107.898 18.3224 107.941 18.1198C107.95 18.0436 107.982 17.9721 108.032 17.9144C108.083 17.8568 108.15 17.8158 108.224 17.7968C108.298 17.7779 108.376 17.7818 108.448 17.8082C108.52 17.8346 108.583 17.8821 108.627 17.9445C108.789 18.1485 108.888 18.3954 108.911 18.6549C108.935 18.9144 108.882 19.1751 108.758 19.4047C108.497 19.8706 108.133 20.2702 107.693 20.5728C107.478 20.7334 107.255 20.894 107.026 21.0595C106.863 21.1471 106.718 21.2643 106.597 21.4051C106.482 21.5961 106.44 21.823 106.481 22.0427C106.515 22.2617 106.593 22.4661 106.646 22.6803C106.783 23.2116 106.738 23.7735 106.52 24.2767C106.33 24.6821 106.023 25.0212 105.639 25.2501C105.376 25.4205 104.67 25.5129 104.67 25.0311Z" fill="white"/>
<path opacity="0.25" d="M112.545 23.201C112.705 23.1119 112.839 22.9813 112.931 22.8229C113.024 22.6645 113.072 22.4841 113.071 22.3006C113.057 21.9401 112.976 21.5853 112.832 21.2542C112.777 21.1497 112.761 21.0286 112.788 20.9135C112.841 20.8211 112.927 20.7531 113.029 20.7239C113.131 20.6948 113.24 20.7069 113.334 20.7577C113.513 20.8655 113.655 21.025 113.742 21.2152C114.044 21.6587 114.195 22.188 114.171 22.7241C114.064 23.5271 113.007 24.6709 112.131 23.8922C111.708 23.5077 112.224 23.3568 112.545 23.201Z" fill="white"/>
<path opacity="0.25" d="M111.143 37.3887C111.155 37.4649 111.189 37.5361 111.241 37.5931C111.499 37.8803 112.034 37.7537 112.341 37.6369C112.936 37.4186 113.468 37.0585 113.892 36.5877C114.316 36.117 114.619 35.5499 114.774 34.9356C114.819 34.5982 114.916 34.2697 115.061 33.9622C115.355 33.593 115.717 33.2839 116.127 33.0521C116.568 32.7487 116.907 32.3196 117.101 31.8207C117.189 31.5784 117.216 31.3178 117.177 31.0627C117.139 30.8076 117.037 30.5662 116.882 30.3605C116.726 30.161 116.419 30.0052 116.21 30.1512C116.001 30.2973 116.064 30.599 116.064 30.8424C116.054 31.1074 115.955 31.3614 115.784 31.5641C115.613 31.7669 115.379 31.9068 115.12 31.9618C114.808 32.03 114.482 31.9618 114.146 32.0202C113.874 32.0654 113.617 32.1746 113.395 32.3388C113.173 32.5029 112.994 32.7174 112.871 32.9644C112.2 34.2834 113.222 36.0113 111.557 36.9312C111.348 36.9993 111.124 37.1648 111.143 37.3887Z" fill="white"/>
<path opacity="0.3" d="M197.124 46.9868C197.123 46.9405 197.105 46.8961 197.074 46.862C197.043 46.828 197 46.8065 196.954 46.8018L192.87 46.3492C192.658 46.3255 192.46 46.2293 192.31 46.0768C192.16 45.9243 192.068 45.7249 192.048 45.512L191.561 40.2993C191.556 40.2524 191.534 40.209 191.499 40.1775C191.464 40.146 191.418 40.1287 191.371 40.129C191.324 40.1276 191.279 40.1447 191.244 40.1765C191.209 40.2083 191.189 40.2524 191.186 40.2993L190.699 45.512C190.68 45.7241 190.588 45.923 190.439 46.0754C190.29 46.2278 190.093 46.3244 189.882 46.3492L185.793 46.8018C185.749 46.809 185.708 46.8318 185.679 46.8661C185.65 46.9005 185.634 46.9441 185.634 46.9892C185.634 47.0343 185.65 47.0779 185.679 47.1122C185.708 47.1466 185.749 47.1694 185.793 47.1766L189.882 47.6292C190.093 47.6538 190.289 47.7497 190.437 47.9011C190.586 48.0525 190.679 48.2503 190.699 48.4615L191.186 53.6791C191.189 53.726 191.209 53.7701 191.244 53.8019C191.279 53.8337 191.324 53.8508 191.371 53.8494C191.418 53.8497 191.464 53.8324 191.499 53.8009C191.534 53.7694 191.556 53.726 191.561 53.6791L192.048 48.4615C192.069 48.2495 192.162 48.0512 192.312 47.8997C192.461 47.7482 192.659 47.6527 192.87 47.6292L196.954 47.1766C197.001 47.1717 197.044 47.1496 197.076 47.1145C197.107 47.0795 197.124 47.0339 197.124 46.9868ZM192.826 47.2545C192.529 47.2878 192.251 47.4226 192.041 47.6362C191.831 47.8498 191.701 48.1292 191.673 48.4274L191.391 51.5619L191.108 48.4274C191.081 48.1289 190.951 47.849 190.741 47.6352C190.531 47.4214 190.253 47.2869 189.955 47.2545L187.56 46.9868L189.955 46.7239C190.253 46.6904 190.531 46.5549 190.741 46.3404C190.951 46.1258 191.081 45.8452 191.108 45.5461L191.391 42.4117L191.673 45.5461C191.701 45.8449 191.831 46.1249 192.041 46.3394C192.251 46.5538 192.528 46.6896 192.826 46.7239L195.221 46.9868L192.826 47.2545ZM32.4786 77.1484L29.4609 76.8126C29.3197 76.7967 29.1882 76.733 29.0882 76.6321C28.9881 76.5312 28.9256 76.3991 28.9109 76.2577L28.5848 72.4322C28.5773 72.384 28.5529 72.34 28.5158 72.3083C28.4788 72.2766 28.4316 72.2592 28.3829 72.2592C28.3341 72.2592 28.2869 72.2766 28.2499 72.3083C28.2129 72.34 28.1884 72.384 28.1809 72.4322L27.8304 76.2821C27.8121 76.4204 27.7472 76.5484 27.6463 76.6449C27.5454 76.7413 27.4146 76.8005 27.2756 76.8126L24.258 77.1484C24.2098 77.1559 24.1659 77.1804 24.1341 77.2174C24.1024 77.2545 24.085 77.3016 24.085 77.3504C24.085 77.3992 24.1024 77.4463 24.1341 77.4834C24.1659 77.5204 24.2098 77.5449 24.258 77.5524L27.2756 77.8882C27.4166 77.9034 27.548 77.967 27.6474 78.0682C27.7468 78.1693 27.808 78.3018 27.8207 78.4431L28.1711 82.293C28.1786 82.3412 28.2031 82.3851 28.2402 82.4168C28.2772 82.4485 28.3244 82.4659 28.3731 82.4659C28.4219 82.4659 28.469 82.4485 28.5061 82.4168C28.5431 82.3851 28.5676 82.3412 28.5751 82.293L28.9207 78.4431C28.9353 78.3017 28.9979 78.1696 29.0979 78.0687C29.1979 77.9678 29.3295 77.9041 29.4707 77.8882L32.4883 77.5524C32.5365 77.5449 32.5804 77.5204 32.6121 77.4834C32.6438 77.4463 32.6613 77.3992 32.6613 77.3504C32.6613 77.3016 32.6438 77.2545 32.6121 77.2174C32.5804 77.1804 32.5365 77.1559 32.4883 77.1484H32.4786ZM29.4853 77.4891C29.2365 77.5164 29.0044 77.6277 28.8274 77.8047C28.6505 77.9817 28.5391 78.2137 28.5118 78.4625L28.3561 80.166L28.2052 78.4625C28.1771 78.2141 28.0654 77.9825 27.8886 77.8057C27.7118 77.6289 27.4802 77.5173 27.2318 77.4891L25.9712 77.3528L27.2318 77.2117C27.4802 77.1835 27.7118 77.0719 27.8886 76.8951C28.0654 76.7183 28.1771 76.4867 28.2052 76.2383L28.3561 74.5348L28.5118 76.2383C28.5391 76.4871 28.6505 76.7191 28.8274 76.8961C29.0044 77.073 29.2365 77.1844 29.4853 77.2117L30.7507 77.3528L29.4853 77.4891ZM207.287 65.3213L204.668 65.0292C204.532 65.015 204.405 64.9538 204.309 64.8561C204.213 64.7584 204.154 64.6303 204.142 64.4939L203.841 61.1501C203.841 61.1179 203.828 61.0869 203.805 61.0641C203.782 61.0413 203.751 61.0285 203.719 61.0285C203.687 61.0285 203.656 61.0413 203.633 61.0641C203.61 61.0869 203.597 61.1179 203.597 61.1501L203.296 64.4939C203.284 64.6303 203.225 64.7584 203.129 64.8561C203.033 64.9538 202.906 65.015 202.77 65.0292L200.151 65.3213C200.124 65.3269 200.099 65.3418 200.081 65.3635C200.064 65.3852 200.054 65.4124 200.054 65.4405C200.054 65.4686 200.064 65.4958 200.081 65.5175C200.099 65.5392 200.124 65.5542 200.151 65.5598L202.77 65.8518C202.906 65.866 203.033 65.9272 203.129 66.0249C203.225 66.1226 203.284 66.2507 203.296 66.3872L203.597 69.7309C203.597 69.7632 203.61 69.7941 203.633 69.8169C203.656 69.8397 203.687 69.8526 203.719 69.8526C203.751 69.8526 203.782 69.8397 203.805 69.8169C203.828 69.7941 203.841 69.7632 203.841 69.7309L204.142 66.3872C204.154 66.2507 204.213 66.1226 204.309 66.0249C204.405 65.9272 204.532 65.866 204.668 65.8518L207.287 65.5598C207.316 65.5573 207.343 65.5439 207.363 65.5223C207.383 65.5006 207.394 65.4723 207.394 65.4429C207.397 65.4276 207.396 65.4118 207.393 65.3966C207.389 65.3813 207.383 65.367 207.374 65.3542C207.365 65.3415 207.353 65.3308 207.34 65.3226C207.327 65.3144 207.312 65.309 207.296 65.3067L207.287 65.3213ZM204.639 65.6084C204.447 65.631 204.269 65.7188 204.135 65.857C204 65.9952 203.917 66.1755 203.899 66.3677L203.719 68.3778L203.539 66.3677C203.521 66.1816 203.441 66.0069 203.312 65.8712C203.183 65.7355 203.013 65.6464 202.828 65.6182L201.29 65.4527L202.828 65.2823C203.02 65.2608 203.198 65.174 203.332 65.0366C203.467 64.8992 203.55 64.7195 203.568 64.5279L203.748 62.5178L203.928 64.5279C203.946 64.7195 204.029 64.8992 204.164 65.0366C204.299 65.174 204.477 65.2608 204.668 65.2823L206.206 65.4527L204.639 65.6084ZM211.813 29.1049L207.102 28.5841C206.856 28.5565 206.628 28.4442 206.457 28.2665C206.285 28.0888 206.181 27.8569 206.162 27.6107L205.617 21.6046C205.612 21.5508 205.588 21.5007 205.548 21.4638C205.509 21.427 205.457 21.4061 205.403 21.4051C205.349 21.406 205.296 21.4267 205.256 21.4635C205.215 21.5002 205.19 21.5504 205.184 21.6046L204.644 27.6107C204.625 27.8576 204.52 28.0902 204.347 28.2679C204.175 28.4457 203.946 28.5576 203.7 28.5841L198.988 29.1049C198.936 29.1127 198.889 29.1388 198.855 29.1786C198.821 29.2183 198.802 29.269 198.802 29.3215C198.802 29.3739 198.821 29.4246 198.855 29.4644C198.889 29.5041 198.936 29.5303 198.988 29.5381L203.7 30.0589C203.945 30.0863 204.174 30.1984 204.346 30.376C204.519 30.5536 204.624 30.7857 204.644 31.0323L205.184 37.0432C205.19 37.097 205.216 37.1466 205.256 37.1826C205.297 37.2185 205.349 37.2382 205.403 37.2379C205.457 37.2381 205.508 37.2182 205.548 37.1822C205.588 37.1461 205.612 37.0966 205.617 37.0432L206.162 31.0323C206.181 30.7861 206.285 30.5541 206.457 30.3765C206.628 30.1988 206.856 30.0865 207.102 30.0589L211.813 29.5381C211.865 29.5303 211.912 29.5041 211.947 29.4644C211.981 29.4246 212 29.3739 212 29.3215C212 29.269 211.981 29.2183 211.947 29.1786C211.912 29.1388 211.865 29.1127 211.813 29.1049ZM207.068 29.6013C206.724 29.6402 206.404 29.7966 206.162 30.0439C205.92 30.2913 205.77 30.6146 205.739 30.9593L205.413 34.5707L205.087 30.9593C205.055 30.6146 204.906 30.2913 204.664 30.0439C204.422 29.7966 204.102 29.6402 203.758 29.6013L200.998 29.2996L203.758 28.993C204.102 28.9541 204.422 28.7977 204.664 28.5504C204.906 28.303 205.055 27.9797 205.087 27.635L205.413 24.0236L205.749 27.6545C205.78 27.9992 205.929 28.3225 206.171 28.5698C206.414 28.8172 206.733 28.9735 207.077 29.0124L209.832 29.3191L207.068 29.6013ZM76.1903 5.05637L73.4647 4.75461C73.3413 4.73849 73.2266 4.68203 73.1386 4.594C73.0506 4.50598 72.9941 4.39133 72.978 4.2679L72.6665 0.792763C72.6628 0.746723 72.6415 0.703874 72.6071 0.673075C72.5727 0.642275 72.5277 0.625881 72.4816 0.62728C72.4359 0.625941 72.3915 0.642491 72.3579 0.673403C72.3242 0.704316 72.304 0.747146 72.3015 0.792763L71.9851 4.2679C71.9698 4.39165 71.9136 4.50674 71.8254 4.59491C71.7372 4.68309 71.6221 4.73929 71.4984 4.75461L68.7728 5.05637C68.7295 5.06347 68.6901 5.08572 68.6617 5.11915C68.6333 5.15258 68.6177 5.19502 68.6177 5.23889C68.6177 5.28276 68.6333 5.3252 68.6617 5.35863C68.6901 5.39207 68.7295 5.41432 68.7728 5.42141L71.4984 5.72317C71.6225 5.73767 71.738 5.79361 71.8263 5.88194C71.9147 5.97026 71.9706 6.08582 71.9851 6.20989L72.3015 9.68502C72.3051 9.73021 72.3257 9.77235 72.3591 9.80302C72.3925 9.8337 72.4362 9.85065 72.4816 9.8505C72.5274 9.85076 72.5717 9.83397 72.6059 9.80339C72.6401 9.77281 72.6617 9.73063 72.6665 9.68502L72.978 6.20502C72.9933 6.08127 73.0495 5.96618 73.1377 5.878C73.2259 5.78983 73.341 5.73362 73.4647 5.7183L76.1903 5.41654C76.2336 5.40945 76.273 5.3872 76.3014 5.35377C76.3298 5.32033 76.3454 5.27789 76.3454 5.23403C76.3454 5.19016 76.3298 5.14772 76.3014 5.11428C76.273 5.08085 76.2336 5.0586 76.1903 5.05151V5.05637ZM73.4258 5.35814C73.213 5.38094 73.0147 5.47685 72.8647 5.6295C72.7147 5.78216 72.6223 5.98212 72.6032 6.19529L72.4718 7.65543L72.3453 6.19529C72.3262 5.98212 72.2338 5.78216 72.0838 5.6295C71.9338 5.47685 71.7355 5.38094 71.5227 5.35814L70.4422 5.23646L71.5081 5.11965C71.7217 5.0995 71.9217 5.00611 72.0743 4.85531C72.2269 4.7045 72.3226 4.50556 72.3453 4.29223L72.4718 2.83209L72.6032 4.29223C72.6232 4.50507 72.7159 4.70453 72.8657 4.85702C73.0155 5.0095 73.2133 5.10569 73.4258 5.12938L74.4917 5.24619L73.4258 5.35814ZM166.593 24.4471L163.867 24.1453C163.743 24.1308 163.627 24.0749 163.539 23.9865C163.451 23.8982 163.395 23.7826 163.38 23.6586L163.064 20.1834C163.057 20.1401 163.035 20.1008 163.001 20.0724C162.968 20.044 162.925 20.0284 162.881 20.0284C162.837 20.0284 162.795 20.044 162.762 20.0724C162.728 20.1008 162.706 20.1401 162.699 20.1834L162.382 23.6586C162.367 23.7823 162.311 23.8974 162.223 23.9856C162.135 24.0738 162.019 24.13 161.896 24.1453L159.17 24.4471C159.127 24.4541 159.087 24.4764 159.059 24.5098C159.031 24.5433 159.015 24.5857 159.015 24.6296C159.015 24.6734 159.031 24.7159 159.059 24.7493C159.087 24.7827 159.127 24.805 159.17 24.8121L161.896 25.1138C162.02 25.1283 162.135 25.1843 162.224 25.2726C162.312 25.3609 162.368 25.4765 162.382 25.6006L162.699 29.0757C162.706 29.119 162.728 29.1583 162.762 29.1868C162.795 29.2152 162.837 29.2307 162.881 29.2307C162.925 29.2307 162.968 29.2152 163.001 29.1868C163.035 29.1583 163.057 29.119 163.064 29.0757L163.38 25.6006C163.395 25.4765 163.451 25.3609 163.539 25.2726C163.627 25.1843 163.743 25.1283 163.867 25.1138L166.593 24.8121C166.636 24.805 166.675 24.7827 166.704 24.7493C166.732 24.7159 166.748 24.6734 166.748 24.6296C166.748 24.5857 166.732 24.5433 166.704 24.5098C166.675 24.4764 166.636 24.4541 166.593 24.4471ZM163.828 24.7488C163.616 24.7725 163.418 24.8687 163.268 25.0212C163.118 25.1737 163.025 25.3731 163.005 25.586L162.879 27.0461L162.747 25.586C162.732 25.3734 162.643 25.1729 162.497 25.0178C162.351 24.8627 162.156 24.7626 161.944 24.7342L160.878 24.6125L161.944 24.4957C162.157 24.472 162.355 24.3758 162.504 24.2234C162.654 24.0709 162.747 23.8714 162.767 23.6586L162.898 22.1984L163.025 23.6586C163.045 23.8714 163.138 24.0709 163.287 24.2234C163.437 24.3758 163.635 24.472 163.847 24.4957L164.913 24.6125L163.828 24.7488ZM153.515 10.8483L149.621 10.42C149.425 10.3953 149.242 10.3057 149.103 10.1655C148.964 10.0252 148.875 9.84239 148.852 9.64608L148.404 4.68647C148.399 4.64216 148.378 4.60121 148.345 4.57154C148.312 4.54187 148.269 4.52559 148.224 4.52586C148.18 4.52452 148.136 4.54056 148.104 4.57055C148.071 4.60056 148.051 4.64215 148.049 4.68647L147.601 9.64608C147.581 9.8479 147.494 10.037 147.352 10.1821C147.21 10.3273 147.023 10.4198 146.822 10.4443L142.928 10.8726C142.886 10.8796 142.848 10.9013 142.821 10.9338C142.793 10.9663 142.778 11.0076 142.778 11.0503C142.778 11.0929 142.793 11.1342 142.821 11.1667C142.848 11.1992 142.886 11.2209 142.928 11.2279L146.822 11.6562C147.024 11.6799 147.211 11.7721 147.353 11.9174C147.495 12.0627 147.582 12.2523 147.601 12.4544L148.049 17.4092C148.051 17.4539 148.071 17.496 148.103 17.5268C148.136 17.5576 148.179 17.5747 148.224 17.5747C148.269 17.5737 148.312 17.5564 148.345 17.5259C148.378 17.4955 148.399 17.4539 148.404 17.4092L148.852 12.4544C148.87 12.252 148.957 12.0619 149.099 11.9164C149.241 11.7709 149.429 11.679 149.631 11.6562L153.524 11.2279C153.566 11.2209 153.605 11.1992 153.632 11.1667C153.66 11.1342 153.675 11.0929 153.675 11.0503C153.675 11.0076 153.66 10.9663 153.632 10.9338C153.605 10.9013 153.566 10.8796 153.524 10.8726L153.515 10.8483ZM149.592 11.2766C149.308 11.3088 149.043 11.4375 148.843 11.6413C148.643 11.8452 148.519 12.1116 148.492 12.396L148.224 15.3747L147.956 12.396C147.93 12.112 147.807 11.8457 147.608 11.6418C147.408 11.4379 147.145 11.3089 146.861 11.2766L144.583 11.0235L146.861 10.7753C147.145 10.7429 147.408 10.6139 147.608 10.4101C147.807 10.2062 147.93 9.93983 147.956 9.65582L148.224 6.67713L148.492 9.65582C148.519 9.94024 148.643 10.2067 148.843 10.4105C149.043 10.6143 149.308 10.7431 149.592 10.7753L151.865 11.0235L149.592 11.2766ZM32.5418 33.8747L29.4853 33.534C29.3413 33.5197 29.207 33.4553 29.1056 33.3522C29.0042 33.249 28.9422 33.1136 28.9304 32.9694L28.58 29.0757C28.5751 29.0236 28.5509 28.9753 28.5122 28.9401C28.4735 28.905 28.423 28.8857 28.3707 28.8859C28.3189 28.8857 28.269 28.9053 28.2311 28.9405C28.1931 28.9757 28.17 29.024 28.1663 29.0757L27.8158 32.9694C27.8022 33.1129 27.7396 33.2473 27.6386 33.3502C27.5376 33.453 27.4042 33.5179 27.261 33.534L24.2044 33.8747C24.1502 33.8747 24.0982 33.8962 24.0599 33.9346C24.0215 33.9729 24 34.0249 24 34.0791C24 34.1333 24.0215 34.1853 24.0599 34.2237C24.0982 34.262 24.1502 34.2835 24.2044 34.2835L27.261 34.6242C27.4042 34.6403 27.5376 34.7053 27.6386 34.8081C27.7396 34.9109 27.8022 35.0453 27.8158 35.1888L28.1663 39.0825C28.17 39.1342 28.1931 39.1825 28.2311 39.2177C28.269 39.253 28.3189 39.2725 28.3707 39.2723C28.423 39.2726 28.4735 39.2532 28.5122 39.2181C28.5509 39.183 28.5751 39.1346 28.58 39.0825L28.9304 35.1888C28.9422 35.0447 29.0042 34.9092 29.1056 34.8061C29.207 34.7029 29.3413 34.6386 29.4853 34.6242L32.5418 34.2835C32.596 34.2835 32.648 34.262 32.6864 34.2237C32.7247 34.1853 32.7462 34.1333 32.7462 34.0791C32.7462 34.0249 32.7247 33.9729 32.6864 33.9346C32.648 33.8962 32.596 33.8747 32.5418 33.8747ZM29.6215 34.23C29.3456 34.2613 29.0888 34.3869 28.8947 34.5855C28.7005 34.7841 28.5807 35.0436 28.5556 35.3202L28.3853 37.1892L28.2198 35.3202C28.1927 35.0395 28.0685 34.777 27.8686 34.5779C27.6687 34.3789 27.4056 34.2559 27.1247 34.23L25.7376 34.0791L27.1247 33.9282C27.4003 33.896 27.6566 33.7702 27.8506 33.5717C28.0446 33.3733 28.1646 33.1143 28.1906 32.838L28.3561 30.969L28.5264 32.838C28.5515 33.1146 28.6713 33.3741 28.8655 33.5727C29.0596 33.7713 29.3164 33.8969 29.5923 33.9282L30.9795 34.0791L29.6215 34.23ZM52.3073 54.4237L47.5959 53.937C47.3503 53.9087 47.1221 53.7963 46.95 53.6189C46.7779 53.4414 46.6725 53.2099 46.6517 52.9636L46.1065 46.943C46.0987 46.8911 46.0726 46.8437 46.0328 46.8095C45.9931 46.7753 45.9424 46.7565 45.8899 46.7565C45.8375 46.7565 45.7868 46.7753 45.7471 46.8095C45.7073 46.8437 45.6812 46.8911 45.6734 46.943L45.1331 52.9636C45.1123 53.2099 45.0068 53.4414 44.8347 53.6189C44.6626 53.7963 44.4344 53.9087 44.1889 53.937L39.4824 54.4237C39.4256 54.4237 39.3711 54.4463 39.3309 54.4865C39.2908 54.5266 39.2682 54.5811 39.2682 54.6379C39.2682 54.6947 39.2908 54.7492 39.3309 54.7893C39.3711 54.8295 39.4256 54.8521 39.4824 54.8521L44.1938 55.3972C44.4384 55.4266 44.6655 55.5394 44.8366 55.7168C45.0077 55.8941 45.1125 56.125 45.1331 56.3706L45.6734 62.3815C45.6812 62.4334 45.7073 62.4807 45.7471 62.5149C45.7868 62.5492 45.8375 62.568 45.8899 62.568C45.9424 62.568 45.9931 62.5492 46.0328 62.5149C46.0726 62.4807 46.0987 62.4334 46.1065 62.3815L46.6517 56.3706C46.6725 56.1243 46.7779 55.8928 46.95 55.7154C47.1221 55.5379 47.3503 55.4255 47.5959 55.3972L52.3073 54.8764C52.3641 54.8764 52.4185 54.8538 52.4587 54.8137C52.4989 54.7735 52.5214 54.719 52.5214 54.6622C52.5214 54.6054 52.4989 54.551 52.4587 54.5108C52.4185 54.4706 52.3641 54.4481 52.3073 54.4481V54.4237ZM47.5667 54.9543C47.2234 54.9949 46.9045 55.1518 46.6627 55.3988C46.421 55.6458 46.2711 55.9682 46.2379 56.3122L45.9167 59.9236L45.5906 56.3122C45.5575 55.9682 45.4076 55.6458 45.1658 55.3988C44.9241 55.1518 44.6051 54.9949 44.2619 54.9543L41.5022 54.6525L44.2619 54.3459C44.605 54.3072 44.9244 54.1515 45.1664 53.9052C45.4084 53.6588 45.5582 53.3366 45.5906 52.9928L45.9167 49.3814L46.2379 52.9928C46.2704 53.3366 46.4202 53.6588 46.6622 53.9052C46.9041 54.1515 47.2235 54.3072 47.5667 54.3459L50.3263 54.6525L47.5667 54.9543Z" fill="#9CBB30"/>
</svg>
