<svg width="69" height="66" viewBox="0 0 69 66" fill="none" xmlns="http://www.w3.org/2000/svg">
<path d="M67.8686 61.7344C62.9307 53.1977 55.3213 47.0764 46.441 44.1747C50.8336 41.5597 54.2464 37.5751 56.1553 32.8328C58.0641 28.0905 58.3635 22.8527 57.0075 17.9238C55.6514 12.9949 52.7149 8.64739 48.6488 5.54894C44.5828 2.45048 39.6121 0.7724 34.5 0.7724C29.388 0.7724 24.4172 2.45048 20.3512 5.54894C16.2851 8.64739 13.3486 12.9949 11.9925 17.9238C10.6365 22.8527 10.9359 28.0905 12.8447 32.8328C14.7536 37.5751 18.1664 41.5597 22.559 44.1747C13.6787 47.0732 6.06927 53.1944 1.13141 61.7344C0.950335 62.0296 0.830226 62.3582 0.778174 62.7006C0.726123 63.043 0.743183 63.3924 0.828348 63.7281C0.913514 64.0639 1.06506 64.3791 1.27404 64.6553C1.48303 64.9316 1.74522 65.1631 2.04514 65.3364C2.34507 65.5096 2.67666 65.621 3.02034 65.664C3.36402 65.7071 3.71284 65.6808 4.04621 65.5868C4.37958 65.4929 4.69076 65.3331 4.96137 65.1169C5.23199 64.9007 5.45656 64.6325 5.62184 64.3281C11.7301 53.7715 22.5266 47.4687 34.5 47.4687C46.4734 47.4687 57.2699 53.7715 63.3782 64.3281C63.5435 64.6325 63.768 64.9007 64.0386 65.1169C64.3093 65.3331 64.6204 65.4929 64.9538 65.5868C65.2872 65.6808 65.636 65.7071 65.9797 65.664C66.3234 65.621 66.6549 65.5096 66.9549 65.3364C67.2548 65.1631 67.517 64.9316 67.726 64.6553C67.935 64.3791 68.0865 64.0639 68.1717 63.7281C68.2568 63.3924 68.2739 63.043 68.2218 62.7006C68.1698 62.3582 68.0497 62.0296 67.8686 61.7344ZM16.3438 24.125C16.3438 20.534 17.4086 17.0237 19.4036 14.0379C21.3987 11.0521 24.2343 8.72499 27.5519 7.35078C30.8695 5.97658 34.5202 5.61702 38.0421 6.31759C41.5641 7.01815 44.7992 8.74737 47.3384 11.2866C49.8776 13.8258 51.6068 17.0609 52.3074 20.5829C53.008 24.1048 52.6484 27.7554 51.2742 31.0731C49.9 34.3907 47.5729 37.2263 44.5871 39.2213C41.6013 41.2164 38.091 42.2812 34.5 42.2812C29.6863 42.2761 25.0711 40.3615 21.6673 36.9577C18.2634 33.5539 16.3489 28.9387 16.3438 24.125Z" fill="#AEAEAE"/>
</svg>
