<svg width="21" height="20" viewBox="0 0 21 20" fill="none" xmlns="http://www.w3.org/2000/svg">
<path d="M10.401 0C10.842 0.0147916 11.3935 0.029231 11.9443 0.0535315C12.3493 0.0711405 12.7538 0.096028 13.1579 0.128194C13.5224 0.157073 13.8869 0.192291 14.2497 0.239483C14.7181 0.300763 15.1865 0.365212 15.6517 0.448678C16.5603 0.611386 17.4594 0.815299 18.3283 1.13931C18.8418 1.3323 19.3348 1.57601 19.775 1.90882C20.029 2.10041 20.2519 2.32087 20.4153 2.59698C20.6287 2.95797 20.6833 3.34431 20.5998 3.75249C20.5671 3.91238 20.5294 4.07156 20.497 4.2311C20.4871 4.27724 20.4706 4.32443 20.5266 4.35824C20.5364 4.36423 20.5375 4.39346 20.534 4.41177C20.4527 4.80551 20.3706 5.19901 20.2875 5.59228C20.275 5.63237 20.259 5.67127 20.2396 5.7085C20.2065 5.77646 20.1794 5.84716 20.1586 5.91981C19.9688 6.84839 19.781 7.77745 19.5951 8.70697C19.4481 9.43481 19.3006 10.1627 19.1527 10.8905C18.9973 11.6597 18.8422 12.4289 18.6875 13.1983C18.4846 14.2131 18.2826 15.2282 18.0814 16.2436C18.0036 16.6353 17.9264 17.0272 17.8472 17.4185C17.7493 17.9031 17.4911 18.288 17.1076 18.5944C16.8393 18.8089 16.5357 18.9621 16.2229 19.0981C15.733 19.3049 15.224 19.4635 14.7033 19.5714C14.2218 19.677 13.7348 19.7475 13.2463 19.8105C12.3166 19.9312 11.3804 19.9945 10.4429 20C9.7954 20.0047 9.14868 19.9812 8.50278 19.9296C7.75935 19.8712 7.01955 19.7734 6.2865 19.6366C5.68779 19.5228 5.09261 19.384 4.5256 19.1488C4.24886 19.0373 3.98281 18.9009 3.73073 18.7413C3.37256 18.5103 3.08905 18.213 2.91507 17.8186C2.84122 17.639 2.78782 17.4516 2.75589 17.26C2.6068 16.5012 2.45712 15.7424 2.30686 14.9835C2.07864 13.8441 1.84914 12.7054 1.61834 11.5674C1.37276 10.3538 1.12682 9.1405 0.880525 7.92759C0.744583 7.25493 0.609111 6.58214 0.474108 5.90924C0.468121 5.87314 0.456222 5.83828 0.43889 5.80605C0.358241 5.67328 0.325136 5.52431 0.294848 5.37675C0.230399 5.05978 0.162076 4.74282 0.093753 4.42586C0.0842441 4.38183 0.0761439 4.3438 0.121927 4.31422C0.151158 4.29555 0.142002 4.26561 0.136367 4.23779C0.104671 4.08072 0.0747352 3.92294 0.041278 3.76622C-0.083394 3.18512 0.0645219 2.6801 0.466713 2.24727C0.704435 1.9944 0.986179 1.8 1.28412 1.62531C1.74196 1.3559 2.23079 1.15515 2.73335 0.987867C3.30036 0.799803 3.88075 0.664918 4.46573 0.547641C4.994 0.441987 5.52227 0.352533 6.05512 0.282801C6.41751 0.235257 6.78132 0.192995 7.14512 0.158481C7.5459 0.120446 7.94739 0.0905105 8.34887 0.0648013C8.6042 0.0482488 8.86059 0.0450792 9.11663 0.036979C9.50896 0.0250048 9.89882 0.0144394 10.401 0ZM9.22721 13.579V13.6872C9.22721 14.6498 9.22721 15.6124 9.22721 16.575C9.22712 16.6456 9.23076 16.7162 9.23813 16.7864C9.31596 17.5351 10.0594 18.0475 10.7877 17.8559C11.0559 17.7872 11.2935 17.6311 11.4632 17.4123C11.6328 17.1935 11.7248 16.9244 11.7245 16.6476C11.7259 15.6615 11.7259 14.6762 11.7245 13.6917V13.5794H11.8386C12.8128 13.5794 13.7871 13.5794 14.7617 13.5794C14.8461 13.5801 14.9303 13.5735 15.0135 13.5597C15.2592 13.5159 15.486 13.3995 15.6647 13.2255C15.8434 13.0514 15.9658 12.8277 16.016 12.5833C16.0662 12.3389 16.0419 12.0851 15.9462 11.8547C15.8506 11.6243 15.688 11.4279 15.4795 11.2909C15.2611 11.1488 15.0046 11.0763 14.7441 11.0831C13.7756 11.0848 12.8071 11.0848 11.8386 11.0831C11.8034 11.0831 11.7682 11.081 11.7256 11.0796V10.9704C11.7256 9.98785 11.7224 9.00527 11.7256 8.02268C11.7259 7.84556 11.6886 7.67038 11.6162 7.50875C11.5437 7.34712 11.4378 7.20273 11.3053 7.08512C11.1729 6.96752 11.0169 6.8794 10.8479 6.82659C10.6788 6.77377 10.5004 6.75748 10.3246 6.77878C10.0248 6.81202 9.74838 6.9564 9.54981 7.18343C9.33578 7.41957 9.22034 7.72871 9.22721 8.04733C9.22721 9.02428 9.22721 10.0012 9.22721 10.9782C9.22721 11.0106 9.22475 11.0433 9.22334 11.0838H9.10606C8.14602 11.0838 7.18597 11.0838 6.22593 11.0838C6.14995 11.0823 6.07395 11.0857 5.99842 11.0941C5.6836 11.1359 5.39655 11.2961 5.19568 11.5421C4.99482 11.7881 4.89522 12.1014 4.91716 12.4183C4.93911 12.7351 5.08094 13.0317 5.3138 13.2476C5.54665 13.4636 5.85305 13.5827 6.17063 13.5808C7.1504 13.5776 8.13017 13.5808 9.10994 13.5808L9.22721 13.579ZM17.9169 3.38516C17.8493 3.34149 17.7958 3.30029 17.737 3.26965C17.3421 3.06528 16.9282 2.90013 16.5012 2.77659C15.6418 2.52619 14.76 2.39694 13.876 2.28918C13.5238 2.24586 13.1716 2.21099 12.8195 2.18352C12.4127 2.15077 12.0052 2.1233 11.5977 2.10428C11.2456 2.08808 10.8934 2.08068 10.5412 2.07998C10.1362 2.07998 9.73107 2.08562 9.32582 2.09689C8.98808 2.10745 8.65069 2.12929 8.31401 2.15323C7.86779 2.18493 7.42088 2.21381 6.97572 2.26171C6.53056 2.3096 6.08822 2.3737 5.64588 2.44061C5.05867 2.52797 4.47978 2.66427 3.91527 2.84809C3.54656 2.96289 3.19273 3.12094 2.86119 3.31895C2.81682 3.34642 2.7742 3.37741 2.73053 3.407C2.73898 3.41792 2.74145 3.42355 2.74567 3.42637C2.76188 3.43764 2.77878 3.4475 2.79568 3.45806C3.04956 3.61487 3.31975 3.74359 3.60147 3.84194C4.10333 4.02155 4.6228 4.13742 5.14227 4.24589C5.81982 4.3881 6.50501 4.49111 7.19442 4.5544C7.60894 4.59173 8.02451 4.62237 8.44009 4.65125C8.77713 4.6745 9.11451 4.68647 9.4519 4.70936C10.0501 4.74936 10.6503 4.74607 11.248 4.6995C11.7083 4.66428 12.169 4.63259 12.6296 4.60441C13.2734 4.56532 13.9151 4.50968 14.5536 4.41881C15.1054 4.34335 15.6521 4.2348 16.1909 4.09375C16.6072 3.98246 17.0175 3.85392 17.4091 3.67113C17.5868 3.5917 17.7568 3.49597 17.9169 3.38516Z" fill="white"/>
</svg>
