<svg width="20" height="20" viewBox="0 0 20 20" fill="none" xmlns="http://www.w3.org/2000/svg">
<g clip-path="url(#clip0_945_858)">
<path d="M19.2635 2.38742C18.8513 1.71503 18.2859 1.14964 17.6135 0.737407C16.4102 0 14.7736 0 11.5 0H8.49998C5.22665 0 3.58984 0 2.38742 0.736807C1.71501 1.14902 1.14962 1.71441 0.737407 2.38682C0 3.58984 0 5.22665 0 8.49998V9.5002C0 11.8297 0 12.9946 0.380704 13.9135C0.631956 14.5202 1.00025 15.0714 1.46456 15.5357C1.92886 16 2.48008 16.3683 3.08673 16.6196C3.74674 16.8932 4.53425 16.97 5.78976 16.9916C6.63997 17.0063 7.06507 17.0135 7.40287 17.21C7.74068 17.4065 7.95008 17.7617 8.37008 18.4721L8.91219 19.388C9.39549 20.2043 10.6024 20.2043 11.0857 19.388L11.6278 18.4721C12.0478 17.7617 12.2578 17.4065 12.5962 17.21C12.9346 17.0135 13.3588 17.0063 14.2093 16.9916C15.4649 16.97 16.2521 16.8932 16.9124 16.6196C18.1375 16.1121 19.1109 15.1387 19.6184 13.9135C19.9991 12.9946 19.9991 11.8297 19.9991 9.5002V8.49998C20.0003 5.22665 20.0003 3.58984 19.2635 2.38742ZM6.00006 10C5.8023 10 5.60897 9.94136 5.44454 9.83149C5.28011 9.72161 5.15194 9.56545 5.07626 9.38274C5.00058 9.20003 4.98078 8.99898 5.01936 8.80502C5.05794 8.61105 5.15318 8.43289 5.29302 8.29305C5.43286 8.15321 5.61102 8.05797 5.80499 8.01939C5.99895 7.98081 6.2 8.00061 6.38271 8.07629C6.56542 8.15197 6.72158 8.28014 6.83145 8.44457C6.94133 8.609 6.99997 8.80233 6.99997 9.00009C6.99997 9.26528 6.89462 9.51961 6.7071 9.70713C6.51958 9.89465 6.26525 10 6.00006 10ZM10 10C9.80225 9.99994 9.60896 9.94125 9.44456 9.83134C9.28017 9.72143 9.15205 9.56525 9.07642 9.38253C9.00078 9.19982 8.98102 8.99878 9.01964 8.80483C9.05826 8.61089 9.15351 8.43275 9.29336 8.29294C9.43321 8.15313 9.61138 8.05793 9.80534 8.01937C9.99929 7.98081 10.2003 8.00063 10.383 8.07632C10.5657 8.15201 10.7219 8.28017 10.8317 8.4446C10.9416 8.60903 11.0002 8.80234 11.0002 9.00009C11.0002 9.13143 10.9743 9.26147 10.9241 9.38281C10.8738 9.50414 10.8001 9.61439 10.7072 9.70724C10.6144 9.80009 10.5041 9.87374 10.3827 9.92397C10.2614 9.97421 10.1313 10 10 10ZM14.0002 10C13.8025 10 13.6092 9.94136 13.4447 9.83149C13.2803 9.72161 13.1521 9.56545 13.0764 9.38274C13.0008 9.20003 12.981 8.99898 13.0195 8.80502C13.0581 8.61105 13.1534 8.43289 13.2932 8.29305C13.433 8.15321 13.6112 8.05797 13.8052 8.01939C13.9991 7.98081 14.2002 8.00061 14.3829 8.07629C14.5656 8.15197 14.7218 8.28014 14.8316 8.44457C14.9415 8.609 15.0001 8.80233 15.0001 9.00009C15.0001 9.26526 14.8947 9.51954 14.7072 9.70705C14.5197 9.89455 14.2654 9.99992 14.0002 10Z" fill="white"/>
</g>
<defs>
<clipPath id="clip0_945_858">
<rect width="20.0003" height="20" fill="white"/>
</clipPath>
</defs>
</svg>
