<svg width="25" height="24" viewBox="0 0 25 24" fill="none" xmlns="http://www.w3.org/2000/svg">
<path d="M13.9297 9.86719C13.3883 9.86719 12.9688 10.2867 12.9688 10.8047C12.9688 11.3227 13.3883 11.7422 13.9297 11.7422C14.4242 11.7422 14.8438 11.3227 14.8438 10.8047C14.8438 10.2867 14.4242 9.86719 13.9297 9.86719ZM7.36719 9.86719C6.82578 9.86719 6.40625 10.2867 6.40625 10.8047C6.40625 11.3227 6.82578 11.7422 7.36719 11.7422C7.86172 11.7422 8.28125 11.3227 8.28125 10.8047C8.28125 10.2867 7.86172 9.86719 7.36719 9.86719Z" fill="white"/>
<path d="M21.4531 8.08601C20.3257 6.53913 18.7507 5.50554 17.0234 5.03913V5.04148C16.6226 4.59617 16.1702 4.18601 15.664 3.82038C11.8273 1.03132 6.44134 1.8821 3.64056 5.71882C1.38353 8.83601 1.47962 13.029 3.78118 16.0079L3.79993 19.1157C3.79993 19.1907 3.81165 19.2657 3.83509 19.336C3.95931 19.7321 4.38118 19.9501 4.77493 19.8259L7.74212 18.8907C8.52728 19.1696 9.33821 19.329 10.1445 19.3735L10.1327 19.3829C12.221 20.904 14.9585 21.361 17.4687 20.5313L20.4476 21.5016C20.5226 21.5251 20.5999 21.5391 20.6796 21.5391C21.0945 21.5391 21.4296 21.204 21.4296 20.7891V17.6485C23.4945 14.8454 23.5484 10.9712 21.4531 8.08601ZM8.07024 17.2266L7.78899 17.1094L5.46868 17.836L5.44524 15.3985L5.25774 15.1876C3.27493 12.7688 3.14368 9.28367 4.99993 6.72663C7.25931 3.6282 11.5906 2.94382 14.6796 5.17976C17.7781 7.4321 18.4648 11.7563 16.2265 14.836C14.3491 17.4118 10.9882 18.3634 8.07024 17.2266ZM19.9062 16.8282L19.7187 17.0626L19.7421 19.5001L17.4452 18.7266L17.164 18.8438C15.8515 19.3313 14.4523 19.3712 13.1562 19.0079L13.1515 19.0055C14.8835 18.4735 16.4538 17.3954 17.5859 15.8438C19.3765 13.3759 19.6671 10.2751 18.6265 7.63132L18.6406 7.6407C19.1796 8.02742 19.6742 8.51023 20.0937 9.09382C21.7952 11.4282 21.6992 14.6063 19.9062 16.8282Z" fill="white"/>
<path d="M10.6484 9.86719C10.107 9.86719 9.6875 10.2867 9.6875 10.8047C9.6875 11.3227 10.107 11.7422 10.6484 11.7422C11.143 11.7422 11.5625 11.3227 11.5625 10.8047C11.5625 10.2867 11.143 9.86719 10.6484 9.86719Z" fill="white"/>
</svg>
