<svg width="19" height="18" viewBox="0 0 19 18" fill="none" xmlns="http://www.w3.org/2000/svg">
<path fill-rule="evenodd" clip-rule="evenodd" d="M2 9C2 4.85775 5.35775 1.5 9.5 1.5C13.6423 1.5 17 4.85775 17 9C17 13.1423 13.6423 16.5 9.5 16.5C5.35775 16.5 2 13.1423 2 9ZM11.75 6.75L8.98025 7.30425C8.69008 7.3624 8.4236 7.50509 8.21434 7.71434C8.00509 7.9236 7.8624 8.19008 7.80425 8.48025L7.25 11.25L10.0197 10.6957C10.3101 10.6377 10.5767 10.4951 10.7861 10.2858C10.9955 10.0766 11.1383 9.81002 11.1965 9.51975L11.75 6.75Z" fill="white"/>
</svg>
