<svg width="18" height="18" viewBox="0 0 18 18" fill="none" xmlns="http://www.w3.org/2000/svg">
<path d="M11.25 16.3125V16.3041C11.3062 16.3097 11.3633 16.3125 11.421 16.3125C11.8203 16.3122 12.207 16.1721 12.5139 15.9166C12.8208 15.6611 13.0285 15.3062 13.1012 14.9136L13.4651 12.9375H15.0469C15.5317 12.9375 15.9967 12.7449 16.3396 12.4021C16.6824 12.0592 16.875 11.5942 16.875 11.1094V6.13688C16.8751 5.91759 16.8311 5.70052 16.7457 5.49855C16.6603 5.29658 16.5352 5.11384 16.3778 4.96116C16.2204 4.80848 16.0339 4.68898 15.8295 4.60976C15.625 4.53054 15.4067 4.49322 15.1875 4.5H10.8377V3.51562C10.8377 3.03078 10.6451 2.56579 10.3022 2.22295C9.9594 1.88011 9.49441 1.6875 9.00956 1.6875H2.95312C2.46828 1.6875 2.00329 1.88011 1.66045 2.22295C1.31761 2.56579 1.125 3.03078 1.125 3.51562V13.7812C1.125 14.4526 1.39168 15.0964 1.86639 15.5711C2.34109 16.0458 2.98492 16.3125 3.65625 16.3125H11.25ZM10.8377 5.625H13.6834C13.6609 5.69475 13.6425 5.76656 13.6283 5.84044L11.9953 14.7094C11.9691 14.8526 11.8902 14.9808 11.7742 15.0688C11.6582 15.1569 11.5135 15.1983 11.3685 15.1851C11.2235 15.1718 11.0887 15.1048 10.9905 14.9972C10.8924 14.8896 10.8381 14.7492 10.8383 14.6036L10.8377 5.625ZM3.9375 5.625C3.78832 5.625 3.64524 5.56574 3.53975 5.46025C3.43426 5.35476 3.375 5.21168 3.375 5.0625C3.375 4.91332 3.43426 4.77024 3.53975 4.66475C3.64524 4.55926 3.78832 4.5 3.9375 4.5C4.08668 4.5 4.22976 4.55926 4.33525 4.66475C4.44074 4.77024 4.5 4.91332 4.5 5.0625C4.5 5.21168 4.44074 5.35476 4.33525 5.46025C4.22976 5.56574 4.08668 5.625 3.9375 5.625ZM3.375 9C3.375 8.85082 3.43426 8.70774 3.53975 8.60225C3.64524 8.49676 3.78832 8.4375 3.9375 8.4375H7.875C8.02418 8.4375 8.16726 8.49676 8.27275 8.60225C8.37824 8.70774 8.4375 8.85082 8.4375 9C8.4375 9.14918 8.37824 9.29226 8.27275 9.39775C8.16726 9.50324 8.02418 9.5625 7.875 9.5625H3.9375C3.78832 9.5625 3.64524 9.50324 3.53975 9.39775C3.43426 9.29226 3.375 9.14918 3.375 9ZM3.9375 11.8125H7.875C8.02418 11.8125 8.16726 11.8718 8.27275 11.9773C8.37824 12.0827 8.4375 12.2258 8.4375 12.375C8.4375 12.5242 8.37824 12.6673 8.27275 12.7727C8.16726 12.8782 8.02418 12.9375 7.875 12.9375H3.9375C3.78832 12.9375 3.64524 12.8782 3.53975 12.7727C3.43426 12.6673 3.375 12.5242 3.375 12.375C3.375 12.2258 3.43426 12.0827 3.53975 11.9773C3.64524 11.8718 3.78832 11.8125 3.9375 11.8125Z" fill="#9CBB30"/>
</svg>
