<svg width="24" height="25" viewBox="0 0 24 25" fill="none" xmlns="http://www.w3.org/2000/svg">
<path fill-rule="evenodd" clip-rule="evenodd" d="M2.52 8.323C2 9.27 2 10.415 2 12.703V14.225C2 18.125 2 20.076 3.172 21.288C4.343 22.5 6.229 22.5 10 22.5H14C17.771 22.5 19.657 22.5 20.828 21.288C22 20.076 22 18.126 22 14.225V12.704C22 10.415 22 9.271 21.48 8.323C20.962 7.374 20.013 6.786 18.116 5.608L16.116 4.367C14.111 3.122 13.108 2.5 12 2.5C10.892 2.5 9.89 3.122 7.884 4.367L5.884 5.608C3.987 6.786 3.039 7.374 2.52 8.323ZM11.25 18.5C11.25 18.6989 11.329 18.8897 11.4697 19.0303C11.6103 19.171 11.8011 19.25 12 19.25C12.1989 19.25 12.3897 19.171 12.5303 19.0303C12.671 18.8897 12.75 18.6989 12.75 18.5V15.5C12.75 15.3011 12.671 15.1103 12.5303 14.9697C12.3897 14.829 12.1989 14.75 12 14.75C11.8011 14.75 11.6103 14.829 11.4697 14.9697C11.329 15.1103 11.25 15.3011 11.25 15.5V18.5Z" fill="#9CBB30"/>
</svg>
