<svg width="24" height="25" viewBox="0 0 24 25" fill="none" xmlns="http://www.w3.org/2000/svg">
<path d="M10.8749 12.5C10.8749 12.7984 10.9934 13.0845 11.2044 13.2955C11.4154 13.5065 11.7015 13.625 11.9999 13.625C12.2983 13.625 12.5844 13.5065 12.7954 13.2955C13.0064 13.0845 13.1249 12.7984 13.1249 12.5C13.1249 12.2016 13.0064 11.9155 12.7954 11.7045C12.5844 11.4935 12.2983 11.375 11.9999 11.375C11.7015 11.375 11.4154 11.4935 11.2044 11.7045C10.9934 11.9155 10.8749 12.2016 10.8749 12.5ZM15.5624 12.5C15.5624 12.7984 15.6809 13.0845 15.8919 13.2955C16.1029 13.5065 16.389 13.625 16.6874 13.625C16.9858 13.625 17.2719 13.5065 17.4829 13.2955C17.6939 13.0845 17.8124 12.7984 17.8124 12.5C17.8124 12.2016 17.6939 11.9155 17.4829 11.7045C17.2719 11.4935 16.9858 11.375 16.6874 11.375C16.389 11.375 16.1029 11.4935 15.8919 11.7045C15.6809 11.9155 15.5624 12.2016 15.5624 12.5ZM6.18739 12.5C6.18739 12.7984 6.30592 13.0845 6.51689 13.2955C6.72787 13.5065 7.01402 13.625 7.31239 13.625C7.61076 13.625 7.89691 13.5065 8.10788 13.2955C8.31886 13.0845 8.43739 12.7984 8.43739 12.5C8.43739 12.2016 8.31886 11.9155 8.10788 11.7045C7.89691 11.4935 7.61076 11.375 7.31239 11.375C7.01402 11.375 6.72787 11.4935 6.51689 11.7045C6.30592 11.9155 6.18739 12.2016 6.18739 12.5ZM21.6843 8.43125C21.1546 7.17266 20.3952 6.04297 19.4272 5.07266C18.466 4.10798 17.325 3.34117 16.0686 2.81563C14.7796 2.27422 13.4108 2 11.9999 2H11.953C10.5327 2.00703 9.15692 2.28828 7.86317 2.84141C6.61762 3.37234 5.48724 4.14052 4.53505 5.10312C3.57645 6.07109 2.82411 7.19609 2.3038 8.45C1.76473 9.74844 1.49286 11.1289 1.49989 12.5492C1.50784 14.1769 1.89292 15.7806 2.62489 17.2344V20.7969C2.62489 21.0828 2.73848 21.357 2.94066 21.5592C3.14285 21.7614 3.41708 21.875 3.70301 21.875H7.26786C8.72167 22.607 10.3253 22.992 11.953 23H12.0022C13.4061 23 14.7679 22.7281 16.0499 22.1961C17.2999 21.6768 18.4367 20.919 19.3968 19.9648C20.3647 19.0063 21.1265 17.8859 21.6585 16.6367C22.2116 15.343 22.4929 13.9672 22.4999 12.5469C22.5069 11.1195 22.2304 9.73438 21.6843 8.43125ZM18.1429 18.6969C16.4999 20.3234 14.3202 21.2188 11.9999 21.2188H11.96C10.5468 21.2117 9.14286 20.8602 7.90301 20.1992L7.70614 20.0938H4.40614V16.7938L4.30067 16.5969C3.63973 15.357 3.28817 13.9531 3.28114 12.5398C3.27176 10.2031 4.16473 8.00937 5.80301 6.35703C7.43895 4.70469 9.62567 3.79062 11.9624 3.78125H12.0022C13.1741 3.78125 14.3108 4.00859 15.3819 4.45859C16.4272 4.89687 17.3647 5.52734 18.171 6.33359C18.9749 7.1375 19.6077 8.07734 20.046 9.12266C20.5007 10.2055 20.728 11.3539 20.7233 12.5398C20.7093 14.8742 19.7929 17.0609 18.1429 18.6969Z" fill="#939393"/>
</svg>
