<svg width="24" height="25" viewBox="0 0 24 25" fill="none" xmlns="http://www.w3.org/2000/svg">
<path d="M18.6541 18.0951L21.5836 21.0231C21.7202 21.1646 21.7958 21.354 21.7941 21.5507C21.7924 21.7473 21.7135 21.9354 21.5745 22.0745C21.4354 22.2135 21.2473 22.2924 21.0507 22.2941C20.854 22.2958 20.6646 22.2202 20.5231 22.0836L17.5936 19.1541C15.6793 20.7943 13.204 21.6292 10.6873 21.4838C8.17065 21.3383 5.80812 20.2237 4.0955 18.3739C2.38287 16.524 1.45329 14.0828 1.50181 11.5624C1.55032 9.04193 2.57317 6.63825 4.35571 4.85571C6.13825 3.07317 8.54193 2.05032 11.0624 2.00181C13.5828 1.95329 16.024 2.88287 17.8739 4.5955C19.7237 6.30812 20.8383 8.67065 20.9838 11.1873C21.1292 13.704 20.2943 16.1793 18.6541 18.0936V18.0951ZM11.2501 20.0001C13.4382 20.0001 15.5366 19.1309 17.0838 17.5838C18.6309 16.0366 19.5001 13.9382 19.5001 11.7501C19.5001 9.56209 18.6309 7.46367 17.0838 5.91649C15.5366 4.36932 13.4382 3.50012 11.2501 3.50012C9.06209 3.50012 6.96367 4.36932 5.41649 5.91649C3.86932 7.46367 3.00012 9.56209 3.00012 11.7501C3.00012 13.9382 3.86932 16.0366 5.41649 17.5838C6.96367 19.1309 9.06209 20.0001 11.2501 20.0001Z" fill="#939393"/>
</svg>
