<svg width="20" height="20" viewBox="0 0 20 20" fill="none" xmlns="http://www.w3.org/2000/svg">
<path fill-rule="evenodd" clip-rule="evenodd" d="M7.42501 10.3078L4.61501 9.37156C1.67376 8.39156 0.202515 7.90156 0.202515 7.00031C0.202515 6.10031 1.67376 5.60906 4.61501 4.62906L15.2563 1.08156C17.3263 0.391563 18.3613 0.0465635 18.9075 0.592813C19.4538 1.13906 19.1088 2.17406 18.42 4.24281L14.8713 14.8853C13.8913 17.8266 13.4013 19.2978 12.5 19.2978C11.6 19.2978 11.1088 17.8266 10.1288 14.8853L9.19126 12.0766L14.6338 6.63406C14.8615 6.39831 14.9875 6.08256 14.9846 5.75481C14.9818 5.42707 14.8503 5.11355 14.6185 4.88179C14.3868 4.65003 14.0733 4.51857 13.7455 4.51572C13.4178 4.51287 13.102 4.63887 12.8663 4.86656L7.42501 10.3078Z" fill="black"/>
</svg>
