<svg width="23" height="20" viewBox="0 0 23 20" fill="none" xmlns="http://www.w3.org/2000/svg">
<path d="M13.9102 0.771846L20.6492 6.76208C21.9091 7.88188 22.539 8.44182 22.7712 9.10302C22.9749 9.68367 22.9749 10.3163 22.7712 10.8969C22.539 11.5581 21.9091 12.1181 20.6492 13.2379L13.9102 19.2281C13.3385 19.7363 13.0526 19.9905 12.8099 19.9995C12.5989 20.0074 12.3964 19.9164 12.2621 19.7535C12.1076 19.566 12.1076 19.1836 12.1076 18.4187V14.6416C8.82047 14.6416 5.34855 15.6974 2.81339 17.5715C1.49358 18.5472 0.833638 19.0351 0.582291 19.0159C0.337292 18.997 0.181808 18.9015 0.0546855 18.6911C-0.0757402 18.4754 0.0394553 17.8014 0.269832 16.4532C1.76575 7.69926 7.79014 5.35838 12.1076 5.35838V1.58133C12.1076 0.8164 12.1076 0.433936 12.2621 0.246434C12.3964 0.0835307 12.5989 -0.00741828 12.8099 0.00047441C13.0526 0.00955845 13.3385 0.263655 13.9102 0.771846Z" fill="white"/>
</svg>
