<svg width="24" height="24" viewBox="0 0 24 24" fill="none" xmlns="http://www.w3.org/2000/svg">
<path d="M15.25 13C16.217 13 17 13.784 17 14.75V19.25C17 19.7141 16.8156 20.1592 16.4874 20.4874C16.1592 20.8156 15.7141 21 15.25 21H3.75C3.28587 21 2.84075 20.8156 2.51256 20.4874C2.18437 20.1592 2 19.7141 2 19.25V14.75C2 13.784 2.784 13 3.75 13H15.25ZM21 14.899V20.25C20.9999 20.44 20.9278 20.6229 20.798 20.7618C20.6683 20.9006 20.4907 20.9851 20.3011 20.998C20.1115 21.011 19.9241 20.9515 19.7767 20.8316C19.6293 20.7117 19.5329 20.5402 19.507 20.352L19.5 20.25V14.912C19.993 15.0348 20.5092 15.0303 21 14.899ZM15.25 14.5H3.75C3.6837 14.5 3.62011 14.5263 3.57322 14.5732C3.52634 14.6201 3.5 14.6837 3.5 14.75V19.25C3.5 19.388 3.612 19.5 3.75 19.5H15.25C15.3163 19.5 15.3799 19.4737 15.4268 19.4268C15.4737 19.3799 15.5 19.3163 15.5 19.25V14.75C15.5 14.6837 15.4737 14.6201 15.4268 14.5732C15.3799 14.5263 15.3163 14.5 15.25 14.5ZM20.25 10.092C20.756 10.092 21.2413 10.293 21.5992 10.6508C21.957 11.0087 22.158 11.494 22.158 12C22.158 12.506 21.957 12.9913 21.5992 13.3492C21.2413 13.707 20.756 13.908 20.25 13.908C19.744 13.908 19.2587 13.707 18.9008 13.3492C18.543 12.9913 18.342 12.506 18.342 12C18.342 11.494 18.543 11.0087 18.9008 10.6508C19.2587 10.293 19.744 10.092 20.25 10.092ZM15.246 3C16.213 3 16.996 3.784 16.996 4.75V9.25C16.996 9.71413 16.8116 10.1592 16.4834 10.4874C16.1552 10.8156 15.7101 11 15.246 11H3.746C3.28187 11 2.83675 10.8156 2.50856 10.4874C2.18037 10.1592 1.996 9.71413 1.996 9.25V4.75C1.99604 4.31065 2.16133 3.88739 2.45905 3.56429C2.75676 3.24119 3.16512 3.0419 3.603 3.006L3.746 3H15.246ZM15.246 4.5H3.746L3.689 4.507C3.63416 4.51984 3.58526 4.55083 3.55023 4.59493C3.5152 4.63904 3.49609 4.69368 3.496 4.75V9.25C3.496 9.388 3.608 9.5 3.746 9.5H15.246C15.3123 9.5 15.3759 9.47366 15.4228 9.42678C15.4697 9.37989 15.496 9.3163 15.496 9.25V4.75C15.496 4.6837 15.4697 4.62011 15.4228 4.57322C15.3759 4.52634 15.3123 4.5 15.246 4.5ZM20.25 3C20.4314 2.99977 20.6068 3.06529 20.7436 3.18444C20.8804 3.30359 20.9693 3.46828 20.994 3.648L21 3.75V9.101C20.5092 8.96972 19.993 8.96524 19.5 9.088V3.75C19.5 3.55109 19.579 3.36032 19.7197 3.21967C19.8603 3.07902 20.0511 3 20.25 3Z" fill="black"/>
</svg>
