<svg width="24" height="24" viewBox="0 0 24 24" fill="none" xmlns="http://www.w3.org/2000/svg">
<path d="M2 8.25C2 7.38805 2.34241 6.5614 2.9519 5.9519C3.5614 5.34241 4.38805 5 5.25 5H11.75C12.1768 5 12.5994 5.08406 12.9937 5.24739C13.388 5.41072 13.7463 5.65011 14.0481 5.9519C14.3499 6.25369 14.5893 6.61197 14.7526 7.00628C14.9159 7.40059 15 7.8232 15 8.25V15.75C15 16.1768 14.9159 16.5994 14.7526 16.9937C14.5893 17.388 14.3499 17.7463 14.0481 18.0481C13.7463 18.3499 13.388 18.5893 12.9937 18.7526C12.5994 18.9159 12.1768 19 11.75 19H5.25C4.38805 19 3.5614 18.6576 2.9519 18.0481C2.34241 17.4386 2 16.612 2 15.75V8.25ZM19.257 17.688L16 15.44V8.562L19.257 6.313C20.418 5.511 22.002 6.343 22.002 7.753V16.248C22.002 17.658 20.418 18.49 19.257 17.688Z" fill="black"/>
</svg>
